<?xml version="1.0" standalone="no"?>
 <!DOCTYPE svg PUBLIC "-//W3C//DTD SVG 1.1//EN" 
 "http://www.w3.org/Graphics/SVG/1.1/DTD/svg11.dtd"> 
<svg xmlns="http://www.w3.org/2000/svg" version="1.1" 
    width="29.7002cm" height="21.0007cm" viewBox="0 0 116930 82680 ">
<title>SVG Picture created as VM-sensor-PT1000-brd.svg date 2016/12/26 17:58:26 </title>
  <desc>Picture generated by PCBNEW </desc>
<g style="fill:#000000; fill-opacity:1;stroke:#000000; stroke-opacity:1;
stroke-linecap:round; stroke-linejoin:round; "
 transform="translate(0 0) scale(1 1)">
</g>
<g style="fill:#000000; fill-opacity:0.0; 
stroke:#000000; stroke-width:-0.000393701; stroke-opacity:1; 
stroke-linecap:round; stroke-linejoin:round;">
</g>
<g style="fill:#000000; fill-opacity:0.0; 
stroke:#000000; stroke-width:39.3701; stroke-opacity:1; 
stroke-linecap:round; stroke-linejoin:round;">
</g>
<g style="fill:#000000; fill-opacity:0.0; 
stroke:#000000; stroke-width:59.0551; stroke-opacity:1; 
stroke-linecap:round; stroke-linejoin:round;">
<rect x="69685.9" y="65357.2" width="42519.7" height="12598.4" rx="0" />
</g>
<g style="fill:#000000; fill-opacity:0.0; 
stroke:#000000; stroke-width:39.3701; stroke-opacity:1; 
stroke-linecap:round; stroke-linejoin:round;">
</g>
<g style="fill:#000000; fill-opacity:0.0; 
stroke:#000000; stroke-width:59.0551; stroke-opacity:1; 
stroke-linecap:round; stroke-linejoin:round;">
<rect x="3937.01" y="3937.01" width="109056" height="74806" rx="0" />
</g>
<g style="fill:#000000; fill-opacity:0.0; 
stroke:#000000; stroke-width:39.3701; stroke-opacity:1; 
stroke-linecap:round; stroke-linejoin:round;">
</g>
<g style="fill:#000000; fill-opacity:0.0; 
stroke:#000000; stroke-width:59.0551; stroke-opacity:1; 
stroke-linecap:round; stroke-linejoin:round;">
<rect x="4724.41" y="4724.41" width="107481" height="73231.2" rx="0" />
</g>
<g style="fill:#000000; fill-opacity:0.0; 
stroke:#000000; stroke-width:39.3701; stroke-opacity:1; 
stroke-linecap:round; stroke-linejoin:round;">
</g>
<g style="fill:#000000; fill-opacity:0.0; 
stroke:#000000; stroke-width:59.0551; stroke-opacity:1; 
stroke-linecap:round; stroke-linejoin:round;">
<path d="M23622 4724
L23622 3937
" />
</g>
<g style="fill:#000000; fill-opacity:0.0; 
stroke:#000000; stroke-width:39.3701; stroke-opacity:1; 
stroke-linecap:round; stroke-linejoin:round;">
</g>
<g style="fill:#000000; fill-opacity:0.0; 
stroke:#000000; stroke-width:59.0551; stroke-opacity:1; 
stroke-linecap:round; stroke-linejoin:round;">
<path d="M43307 4724
L43307 3937
" />
</g>
<g style="fill:#000000; fill-opacity:0.0; 
stroke:#000000; stroke-width:39.3701; stroke-opacity:1; 
stroke-linecap:round; stroke-linejoin:round;">
</g>
<g style="fill:#000000; fill-opacity:0.0; 
stroke:#000000; stroke-width:59.0551; stroke-opacity:1; 
stroke-linecap:round; stroke-linejoin:round;">
<path d="M62992 4724
L62992 3937
" />
</g>
<g style="fill:#000000; fill-opacity:0.0; 
stroke:#000000; stroke-width:39.3701; stroke-opacity:1; 
stroke-linecap:round; stroke-linejoin:round;">
</g>
<g style="fill:#000000; fill-opacity:0.0; 
stroke:#000000; stroke-width:59.0551; stroke-opacity:1; 
stroke-linecap:round; stroke-linejoin:round;">
<path d="M82677 4724
L82677 3937
" />
</g>
<g style="fill:#000000; fill-opacity:0.0; 
stroke:#000000; stroke-width:39.3701; stroke-opacity:1; 
stroke-linecap:round; stroke-linejoin:round;">
</g>
<g style="fill:#000000; fill-opacity:0.0; 
stroke:#000000; stroke-width:59.0551; stroke-opacity:1; 
stroke-linecap:round; stroke-linejoin:round;">
<path d="M102362 4724
L102362 3937
" />
</g>
<g style="fill:#000000; fill-opacity:0.0; 
stroke:#000000; stroke-width:39.3701; stroke-opacity:1; 
stroke-linecap:round; stroke-linejoin:round;">
</g>
<g style="fill:#000000; fill-opacity:0.0; 
stroke:#000000; stroke-width:59.0551; stroke-opacity:1; 
stroke-linecap:round; stroke-linejoin:round;">
<path d="M14199 4562
L13906 4562
" />
<path d="M14052 4562
L14052 4050
L14004 4123
L13955 4172
L13906 4196
" />
</g>
<g style="fill:#000000; fill-opacity:0.0; 
stroke:#000000; stroke-width:39.3701; stroke-opacity:1; 
stroke-linecap:round; stroke-linejoin:round;">
</g>
<g style="fill:#000000; fill-opacity:0.0; 
stroke:#000000; stroke-width:59.0551; stroke-opacity:1; 
stroke-linecap:round; stroke-linejoin:round;">
<path d="M33591 4099
L33615 4074
L33664 4050
L33786 4050
L33835 4074
L33859 4099
L33884 4147
L33884 4196
L33859 4269
L33567 4562
L33884 4562
" />
</g>
<g style="fill:#000000; fill-opacity:0.0; 
stroke:#000000; stroke-width:39.3701; stroke-opacity:1; 
stroke-linecap:round; stroke-linejoin:round;">
</g>
<g style="fill:#000000; fill-opacity:0.0; 
stroke:#000000; stroke-width:59.0551; stroke-opacity:1; 
stroke-linecap:round; stroke-linejoin:round;">
<path d="M53252 4050
L53569 4050
L53398 4245
L53471 4245
L53520 4269
L53544 4294
L53569 4342
L53569 4464
L53544 4513
L53520 4537
L53471 4562
L53325 4562
L53276 4537
L53252 4513
" />
</g>
<g style="fill:#000000; fill-opacity:0.0; 
stroke:#000000; stroke-width:39.3701; stroke-opacity:1; 
stroke-linecap:round; stroke-linejoin:round;">
</g>
<g style="fill:#000000; fill-opacity:0.0; 
stroke:#000000; stroke-width:59.0551; stroke-opacity:1; 
stroke-linecap:round; stroke-linejoin:round;">
<path d="M73205 4221
L73205 4562
" />
<path d="M73083 4026
L72961 4391
L73278 4391
" />
</g>
<g style="fill:#000000; fill-opacity:0.0; 
stroke:#000000; stroke-width:39.3701; stroke-opacity:1; 
stroke-linecap:round; stroke-linejoin:round;">
</g>
<g style="fill:#000000; fill-opacity:0.0; 
stroke:#000000; stroke-width:59.0551; stroke-opacity:1; 
stroke-linecap:round; stroke-linejoin:round;">
<path d="M92914 4050
L92671 4050
L92646 4294
L92671 4269
L92719 4245
L92841 4245
L92890 4269
L92914 4294
L92939 4342
L92939 4464
L92914 4513
L92890 4537
L92841 4562
L92719 4562
L92671 4537
L92646 4513
" />
</g>
<g style="fill:#000000; fill-opacity:0.0; 
stroke:#000000; stroke-width:39.3701; stroke-opacity:1; 
stroke-linecap:round; stroke-linejoin:round;">
</g>
<g style="fill:#000000; fill-opacity:0.0; 
stroke:#000000; stroke-width:59.0551; stroke-opacity:1; 
stroke-linecap:round; stroke-linejoin:round;">
<path d="M112575 4050
L112477 4050
L112429 4074
L112404 4099
L112356 4172
L112331 4269
L112331 4464
L112356 4513
L112380 4537
L112429 4562
L112526 4562
L112575 4537
L112599 4513
L112624 4464
L112624 4342
L112599 4294
L112575 4269
L112526 4245
L112429 4245
L112380 4269
L112356 4294
L112331 4342
" />
</g>
<g style="fill:#000000; fill-opacity:0.0; 
stroke:#000000; stroke-width:39.3701; stroke-opacity:1; 
stroke-linecap:round; stroke-linejoin:round;">
</g>
<g style="fill:#000000; fill-opacity:0.0; 
stroke:#000000; stroke-width:59.0551; stroke-opacity:1; 
stroke-linecap:round; stroke-linejoin:round;">
<path d="M23622 77955
L23622 78742
" />
</g>
<g style="fill:#000000; fill-opacity:0.0; 
stroke:#000000; stroke-width:39.3701; stroke-opacity:1; 
stroke-linecap:round; stroke-linejoin:round;">
</g>
<g style="fill:#000000; fill-opacity:0.0; 
stroke:#000000; stroke-width:59.0551; stroke-opacity:1; 
stroke-linecap:round; stroke-linejoin:round;">
<path d="M43307 77955
L43307 78742
" />
</g>
<g style="fill:#000000; fill-opacity:0.0; 
stroke:#000000; stroke-width:39.3701; stroke-opacity:1; 
stroke-linecap:round; stroke-linejoin:round;">
</g>
<g style="fill:#000000; fill-opacity:0.0; 
stroke:#000000; stroke-width:59.0551; stroke-opacity:1; 
stroke-linecap:round; stroke-linejoin:round;">
<path d="M62992 77955
L62992 78742
" />
</g>
<g style="fill:#000000; fill-opacity:0.0; 
stroke:#000000; stroke-width:39.3701; stroke-opacity:1; 
stroke-linecap:round; stroke-linejoin:round;">
</g>
<g style="fill:#000000; fill-opacity:0.0; 
stroke:#000000; stroke-width:59.0551; stroke-opacity:1; 
stroke-linecap:round; stroke-linejoin:round;">
<path d="M82677 77955
L82677 78742
" />
</g>
<g style="fill:#000000; fill-opacity:0.0; 
stroke:#000000; stroke-width:39.3701; stroke-opacity:1; 
stroke-linecap:round; stroke-linejoin:round;">
</g>
<g style="fill:#000000; fill-opacity:0.0; 
stroke:#000000; stroke-width:59.0551; stroke-opacity:1; 
stroke-linecap:round; stroke-linejoin:round;">
<path d="M102362 77955
L102362 78742
" />
</g>
<g style="fill:#000000; fill-opacity:0.0; 
stroke:#000000; stroke-width:39.3701; stroke-opacity:1; 
stroke-linecap:round; stroke-linejoin:round;">
</g>
<g style="fill:#000000; fill-opacity:0.0; 
stroke:#000000; stroke-width:59.0551; stroke-opacity:1; 
stroke-linecap:round; stroke-linejoin:round;">
<path d="M14199 78580
L13906 78580
" />
<path d="M14052 78580
L14052 78069
L14004 78142
L13955 78190
L13906 78215
" />
</g>
<g style="fill:#000000; fill-opacity:0.0; 
stroke:#000000; stroke-width:39.3701; stroke-opacity:1; 
stroke-linecap:round; stroke-linejoin:round;">
</g>
<g style="fill:#000000; fill-opacity:0.0; 
stroke:#000000; stroke-width:59.0551; stroke-opacity:1; 
stroke-linecap:round; stroke-linejoin:round;">
<path d="M33591 78117
L33615 78093
L33664 78069
L33786 78069
L33835 78093
L33859 78117
L33884 78166
L33884 78215
L33859 78288
L33567 78580
L33884 78580
" />
</g>
<g style="fill:#000000; fill-opacity:0.0; 
stroke:#000000; stroke-width:39.3701; stroke-opacity:1; 
stroke-linecap:round; stroke-linejoin:round;">
</g>
<g style="fill:#000000; fill-opacity:0.0; 
stroke:#000000; stroke-width:59.0551; stroke-opacity:1; 
stroke-linecap:round; stroke-linejoin:round;">
<path d="M53252 78069
L53569 78069
L53398 78263
L53471 78263
L53520 78288
L53544 78312
L53569 78361
L53569 78483
L53544 78532
L53520 78556
L53471 78580
L53325 78580
L53276 78556
L53252 78532
" />
</g>
<g style="fill:#000000; fill-opacity:0.0; 
stroke:#000000; stroke-width:39.3701; stroke-opacity:1; 
stroke-linecap:round; stroke-linejoin:round;">
</g>
<g style="fill:#000000; fill-opacity:0.0; 
stroke:#000000; stroke-width:59.0551; stroke-opacity:1; 
stroke-linecap:round; stroke-linejoin:round;">
<path d="M73205 78239
L73205 78580
" />
<path d="M73083 78044
L72961 78410
L73278 78410
" />
</g>
<g style="fill:#000000; fill-opacity:0.0; 
stroke:#000000; stroke-width:39.3701; stroke-opacity:1; 
stroke-linecap:round; stroke-linejoin:round;">
</g>
<g style="fill:#000000; fill-opacity:0.0; 
stroke:#000000; stroke-width:59.0551; stroke-opacity:1; 
stroke-linecap:round; stroke-linejoin:round;">
<path d="M92914 78069
L92671 78069
L92646 78312
L92671 78288
L92719 78263
L92841 78263
L92890 78288
L92914 78312
L92939 78361
L92939 78483
L92914 78532
L92890 78556
L92841 78580
L92719 78580
L92671 78556
L92646 78532
" />
</g>
<g style="fill:#000000; fill-opacity:0.0; 
stroke:#000000; stroke-width:39.3701; stroke-opacity:1; 
stroke-linecap:round; stroke-linejoin:round;">
</g>
<g style="fill:#000000; fill-opacity:0.0; 
stroke:#000000; stroke-width:59.0551; stroke-opacity:1; 
stroke-linecap:round; stroke-linejoin:round;">
<path d="M112575 78069
L112477 78069
L112429 78093
L112404 78117
L112356 78190
L112331 78288
L112331 78483
L112356 78532
L112380 78556
L112429 78580
L112526 78580
L112575 78556
L112599 78532
L112624 78483
L112624 78361
L112599 78312
L112575 78288
L112526 78263
L112429 78263
L112380 78288
L112356 78312
L112331 78361
" />
</g>
<g style="fill:#000000; fill-opacity:0.0; 
stroke:#000000; stroke-width:39.3701; stroke-opacity:1; 
stroke-linecap:round; stroke-linejoin:round;">
</g>
<g style="fill:#000000; fill-opacity:0.0; 
stroke:#000000; stroke-width:59.0551; stroke-opacity:1; 
stroke-linecap:round; stroke-linejoin:round;">
<path d="M3937 23622
L4724 23622
" />
</g>
<g style="fill:#000000; fill-opacity:0.0; 
stroke:#000000; stroke-width:39.3701; stroke-opacity:1; 
stroke-linecap:round; stroke-linejoin:round;">
</g>
<g style="fill:#000000; fill-opacity:0.0; 
stroke:#000000; stroke-width:59.0551; stroke-opacity:1; 
stroke-linecap:round; stroke-linejoin:round;">
<path d="M3937 43307
L4724 43307
" />
</g>
<g style="fill:#000000; fill-opacity:0.0; 
stroke:#000000; stroke-width:39.3701; stroke-opacity:1; 
stroke-linecap:round; stroke-linejoin:round;">
</g>
<g style="fill:#000000; fill-opacity:0.0; 
stroke:#000000; stroke-width:59.0551; stroke-opacity:1; 
stroke-linecap:round; stroke-linejoin:round;">
<path d="M3937 62992
L4724 62992
" />
</g>
<g style="fill:#000000; fill-opacity:0.0; 
stroke:#000000; stroke-width:39.3701; stroke-opacity:1; 
stroke-linecap:round; stroke-linejoin:round;">
</g>
<g style="fill:#000000; fill-opacity:0.0; 
stroke:#000000; stroke-width:59.0551; stroke-opacity:1; 
stroke-linecap:round; stroke-linejoin:round;">
<path d="M4208 13864
L4452 13864
" />
<path d="M4160 14011
L4330 13499
L4501 14011
" />
</g>
<g style="fill:#000000; fill-opacity:0.0; 
stroke:#000000; stroke-width:39.3701; stroke-opacity:1; 
stroke-linecap:round; stroke-linejoin:round;">
</g>
<g style="fill:#000000; fill-opacity:0.0; 
stroke:#000000; stroke-width:59.0551; stroke-opacity:1; 
stroke-linecap:round; stroke-linejoin:round;">
<path d="M4367 33428
L4440 33452
L4464 33476
L4489 33525
L4489 33598
L4464 33647
L4440 33671
L4391 33696
L4196 33696
L4196 33184
L4367 33184
L4416 33208
L4440 33233
L4464 33281
L4464 33330
L4440 33379
L4416 33403
L4367 33428
L4196 33428
" />
</g>
<g style="fill:#000000; fill-opacity:0.0; 
stroke:#000000; stroke-width:39.3701; stroke-opacity:1; 
stroke-linecap:round; stroke-linejoin:round;">
</g>
<g style="fill:#000000; fill-opacity:0.0; 
stroke:#000000; stroke-width:59.0551; stroke-opacity:1; 
stroke-linecap:round; stroke-linejoin:round;">
<path d="M4489 53332
L4464 53356
L4391 53381
L4342 53381
L4269 53356
L4221 53308
L4196 53259
L4172 53161
L4172 53088
L4196 52991
L4221 52942
L4269 52893
L4342 52869
L4391 52869
L4464 52893
L4489 52918
" />
</g>
<g style="fill:#000000; fill-opacity:0.0; 
stroke:#000000; stroke-width:39.3701; stroke-opacity:1; 
stroke-linecap:round; stroke-linejoin:round;">
</g>
<g style="fill:#000000; fill-opacity:0.0; 
stroke:#000000; stroke-width:59.0551; stroke-opacity:1; 
stroke-linecap:round; stroke-linejoin:round;">
<path d="M4196 73066
L4196 72554
L4318 72554
L4391 72578
L4440 72627
L4464 72676
L4489 72773
L4489 72846
L4464 72944
L4440 72993
L4391 73041
L4318 73066
L4196 73066
" />
</g>
<g style="fill:#000000; fill-opacity:0.0; 
stroke:#000000; stroke-width:39.3701; stroke-opacity:1; 
stroke-linecap:round; stroke-linejoin:round;">
</g>
<g style="fill:#000000; fill-opacity:0.0; 
stroke:#000000; stroke-width:59.0551; stroke-opacity:1; 
stroke-linecap:round; stroke-linejoin:round;">
<path d="M112992 23622
L112205 23622
" />
</g>
<g style="fill:#000000; fill-opacity:0.0; 
stroke:#000000; stroke-width:39.3701; stroke-opacity:1; 
stroke-linecap:round; stroke-linejoin:round;">
</g>
<g style="fill:#000000; fill-opacity:0.0; 
stroke:#000000; stroke-width:59.0551; stroke-opacity:1; 
stroke-linecap:round; stroke-linejoin:round;">
<path d="M112992 43307
L112205 43307
" />
</g>
<g style="fill:#000000; fill-opacity:0.0; 
stroke:#000000; stroke-width:39.3701; stroke-opacity:1; 
stroke-linecap:round; stroke-linejoin:round;">
</g>
<g style="fill:#000000; fill-opacity:0.0; 
stroke:#000000; stroke-width:59.0551; stroke-opacity:1; 
stroke-linecap:round; stroke-linejoin:round;">
<path d="M112992 62992
L112205 62992
" />
</g>
<g style="fill:#000000; fill-opacity:0.0; 
stroke:#000000; stroke-width:39.3701; stroke-opacity:1; 
stroke-linecap:round; stroke-linejoin:round;">
</g>
<g style="fill:#000000; fill-opacity:0.0; 
stroke:#000000; stroke-width:59.0551; stroke-opacity:1; 
stroke-linecap:round; stroke-linejoin:round;">
<path d="M112477 13864
L112721 13864
" />
<path d="M112428 14011
L112599 13499
L112769 14011
" />
</g>
<g style="fill:#000000; fill-opacity:0.0; 
stroke:#000000; stroke-width:39.3701; stroke-opacity:1; 
stroke-linecap:round; stroke-linejoin:round;">
</g>
<g style="fill:#000000; fill-opacity:0.0; 
stroke:#000000; stroke-width:59.0551; stroke-opacity:1; 
stroke-linecap:round; stroke-linejoin:round;">
<path d="M112635 33428
L112708 33452
L112733 33476
L112757 33525
L112757 33598
L112733 33647
L112708 33671
L112660 33696
L112465 33696
L112465 33184
L112635 33184
L112684 33208
L112708 33233
L112733 33281
L112733 33330
L112708 33379
L112684 33403
L112635 33428
L112465 33428
" />
</g>
<g style="fill:#000000; fill-opacity:0.0; 
stroke:#000000; stroke-width:39.3701; stroke-opacity:1; 
stroke-linecap:round; stroke-linejoin:round;">
</g>
<g style="fill:#000000; fill-opacity:0.0; 
stroke:#000000; stroke-width:59.0551; stroke-opacity:1; 
stroke-linecap:round; stroke-linejoin:round;">
<path d="M112757 53332
L112733 53356
L112660 53381
L112611 53381
L112538 53356
L112489 53308
L112465 53259
L112440 53161
L112440 53088
L112465 52991
L112489 52942
L112538 52893
L112611 52869
L112660 52869
L112733 52893
L112757 52918
" />
</g>
<g style="fill:#000000; fill-opacity:0.0; 
stroke:#000000; stroke-width:39.3701; stroke-opacity:1; 
stroke-linecap:round; stroke-linejoin:round;">
</g>
<g style="fill:#000000; fill-opacity:0.0; 
stroke:#000000; stroke-width:59.0551; stroke-opacity:1; 
stroke-linecap:round; stroke-linejoin:round;">
<path d="M112465 73066
L112465 72554
L112587 72554
L112660 72578
L112708 72627
L112733 72676
L112757 72773
L112757 72846
L112733 72944
L112708 72993
L112660 73041
L112587 73066
L112465 73066
" />
</g>
<g style="fill:#000000; fill-opacity:0.0; 
stroke:#000000; stroke-width:39.3701; stroke-opacity:1; 
stroke-linecap:round; stroke-linejoin:round;">
</g>
<g style="fill:#000000; fill-opacity:0.0; 
stroke:#000000; stroke-width:59.0551; stroke-opacity:1; 
stroke-linecap:round; stroke-linejoin:round;">
<path d="M78911 76293
L78911 75703
L79051 75703
L79136 75731
L79192 75787
L79220 75843
L79248 75956
L79248 76040
L79220 76153
L79192 76209
L79136 76265
L79051 76293
L78911 76293
" />
<path d="M79754 76293
L79754 75984
L79726 75928
L79670 75899
L79557 75899
L79501 75928
" />
<path d="M79754 76265
L79698 76293
L79557 76293
L79501 76265
L79473 76209
L79473 76153
L79501 76096
L79557 76068
L79698 76068
L79754 76040
" />
<path d="M79951 75899
L80176 75899
" />
<path d="M80036 75703
L80036 76209
L80064 76265
L80120 76293
L80176 76293
" />
<path d="M80598 76265
L80542 76293
L80429 76293
L80373 76265
L80345 76209
L80345 75984
L80373 75928
L80429 75899
L80542 75899
L80598 75928
L80626 75984
L80626 76040
L80345 76096
" />
<path d="M80879 76237
L80907 76265
L80879 76293
L80851 76265
L80879 76237
L80879 76293
" />
<path d="M80879 75928
L80907 75956
L80879 75984
L80851 75956
L80879 75928
L80879 75984
" />
</g>
<g style="fill:#000000; fill-opacity:0.0; 
stroke:#000000; stroke-width:39.3701; stroke-opacity:1; 
stroke-linecap:round; stroke-linejoin:round;">
</g>
<g style="fill:#000000; fill-opacity:0.0; 
stroke:#000000; stroke-width:59.0551; stroke-opacity:1; 
stroke-linecap:round; stroke-linejoin:round;">
<path d="M69685 76577
L112205 76577
" />
</g>
<g style="fill:#000000; fill-opacity:0.0; 
stroke:#000000; stroke-width:39.3701; stroke-opacity:1; 
stroke-linecap:round; stroke-linejoin:round;">
</g>
<g style="fill:#000000; fill-opacity:0.0; 
stroke:#000000; stroke-width:59.0551; stroke-opacity:1; 
stroke-linecap:round; stroke-linejoin:round;">
<path d="M70249 77395
L70249 76805
" />
<path d="M70587 77395
L70334 77058
" />
<path d="M70587 76805
L70249 77142
" />
<path d="M70840 77395
L70840 77002
" />
<path d="M70840 76805
L70812 76833
L70840 76861
L70868 76833
L70840 76805
L70840 76861
" />
<path d="M71458 77339
L71430 77367
L71346 77395
L71290 77395
L71205 77367
L71149 77311
L71121 77255
L71093 77142
L71093 77058
L71121 76946
L71149 76889
L71205 76833
L71290 76805
L71346 76805
L71430 76833
L71458 76861
" />
<path d="M71965 77395
L71965 77086
L71937 77030
L71880 77002
L71768 77002
L71712 77030
" />
<path d="M71965 77367
L71908 77395
L71768 77395
L71712 77367
L71683 77311
L71683 77255
L71712 77199
L71768 77171
L71908 77171
L71965 77142
" />
<path d="M72499 77395
L72499 76805
" />
<path d="M72499 77367
L72443 77395
L72330 77395
L72274 77367
L72246 77339
L72218 77283
L72218 77114
L72246 77058
L72274 77030
L72330 77002
L72443 77002
L72499 77030
" />
<path d="M73230 77086
L73427 77086
" />
<path d="M73511 77395
L73230 77395
L73230 76805
L73511 76805
" />
<path d="M73764 77339
L73793 77367
L73764 77395
L73736 77367
L73764 77339
L73764 77395
" />
<path d="M74046 77395
L74046 76805
L74186 76805
L74271 76833
L74327 76889
L74355 76946
L74383 77058
L74383 77142
L74355 77255
L74327 77311
L74271 77367
L74186 77395
L74046 77395
" />
<path d="M74636 77339
L74664 77367
L74636 77395
L74608 77367
L74636 77339
L74636 77395
" />
<path d="M74889 77227
L75171 77227
" />
<path d="M74833 77395
L75030 76805
L75227 77395
" />
<path d="M75424 77339
L75452 77367
L75424 77395
L75395 77367
L75424 77339
L75424 77395
" />
<path d="M76605 77395
L76605 76805
" />
<path d="M76661 77171
L76830 77395
" />
<path d="M76830 77002
L76605 77227
" />
<path d="M77083 77395
L77083 77002
" />
<path d="M77083 76805
L77055 76833
L77083 76861
L77111 76833
L77083 76805
L77083 76861
" />
<path d="M77617 77367
L77561 77395
L77448 77395
L77392 77367
L77364 77339
L77336 77283
L77336 77114
L77364 77058
L77392 77030
L77448 77002
L77561 77002
L77617 77030
" />
<path d="M78123 77395
L78123 77086
L78095 77030
L78039 77002
L77926 77002
L77870 77030
" />
<path d="M78123 77367
L78067 77395
L77926 77395
L77870 77367
L77842 77311
L77842 77255
L77870 77199
L77926 77171
L78067 77171
L78123 77142
" />
<path d="M78658 77395
L78658 76805
" />
<path d="M78658 77367
L78601 77395
L78489 77395
L78433 77367
L78404 77339
L78376 77283
L78376 77114
L78404 77058
L78433 77030
L78489 77002
L78601 77002
L78658 77030
" />
<path d="M79389 77002
L79389 77395
" />
<path d="M79389 77058
L79417 77030
L79473 77002
L79557 77002
L79614 77030
L79642 77086
L79642 77395
" />
<path d="M80007 77395
L79951 77367
L79923 77339
L79895 77283
L79895 77114
L79923 77058
L79951 77030
L80007 77002
L80092 77002
L80148 77030
L80176 77058
L80204 77114
L80204 77283
L80176 77339
L80148 77367
L80092 77395
L80007 77395
" />
<path d="M80457 77171
L80907 77171
" />
<path d="M81132 77002
L81273 77395
L81413 77002
" />
<path d="M81892 77367
L81835 77395
L81723 77395
L81667 77367
L81638 77339
L81610 77283
L81610 77114
L81638 77058
L81667 77030
L81723 77002
L81835 77002
L81892 77030
" />
<path d="M82117 77367
L82173 77395
L82285 77395
L82341 77367
L82370 77311
L82370 77283
L82341 77227
L82285 77199
L82201 77199
L82145 77171
L82117 77114
L82117 77086
L82145 77030
L82201 77002
L82285 77002
L82341 77030
" />
<path d="M82623 77171
L83073 77171
" />
<path d="M83269 77002
L83494 77002
" />
<path d="M83354 77395
L83354 76889
L83382 76833
L83438 76805
L83494 76805
" />
<path d="M83776 77395
L83719 77367
L83691 77339
L83663 77283
L83663 77114
L83691 77058
L83719 77030
L83776 77002
L83860 77002
L83916 77030
L83944 77058
L83973 77114
L83973 77283
L83944 77339
L83916 77367
L83860 77395
L83776 77395
" />
<path d="M84479 77002
L84479 77395
" />
<path d="M84226 77002
L84226 77311
L84254 77367
L84310 77395
L84394 77395
L84451 77367
L84479 77339
" />
<path d="M84760 77002
L84760 77395
" />
<path d="M84760 77058
L84788 77030
L84844 77002
L84929 77002
L84985 77030
L85013 77086
L85013 77395
" />
<path d="M85547 77395
L85547 76805
" />
<path d="M85547 77367
L85491 77395
L85379 77395
L85322 77367
L85294 77339
L85266 77283
L85266 77114
L85294 77058
L85322 77030
L85379 77002
L85491 77002
L85547 77030
" />
<path d="M85829 77171
L86278 77171
" />
<path d="M86503 76805
L86897 76805
L86644 77395
" />
<path d="M87066 76805
L87431 76805
L87235 77030
L87319 77030
L87375 77058
L87403 77086
L87431 77142
L87431 77283
L87403 77339
L87375 77367
L87319 77395
L87150 77395
L87094 77367
L87066 77339
" />
<path d="M87713 77395
L87825 77395
L87881 77367
L87910 77339
L87966 77255
L87994 77142
L87994 76917
L87966 76861
L87938 76833
L87881 76805
L87769 76805
L87713 76833
L87685 76861
L87656 76917
L87656 77058
L87685 77114
L87713 77142
L87769 77171
L87881 77171
L87938 77142
L87966 77114
L87994 77058
" />
<path d="M88191 76805
L88584 76805
L88331 77395
" />
<path d="M88766 76644
L89231 76644
" />
<path d="M89091 76805
L88809 76805
L88781 77086
L88809 77058
L88866 77030
L89006 77030
L89063 77058
L89091 77086
L89119 77142
L89119 77283
L89091 77339
L89063 77367
L89006 77395
L88866 77395
L88809 77367
L88781 77339
" />
<path d="M89231 76644
L89794 76644
" />
<path d="M89625 76805
L89512 76805
L89456 76833
L89428 76861
L89372 76946
L89344 77058
L89344 77283
L89372 77339
L89400 77367
L89456 77395
L89569 77395
L89625 77367
L89653 77339
L89681 77283
L89681 77142
L89653 77086
L89625 77058
L89569 77030
L89456 77030
L89400 77058
L89372 77086
L89344 77142
" />
<path d="M90187 77002
L90187 77395
" />
<path d="M89934 77002
L89934 77311
L89962 77367
L90019 77395
L90103 77395
L90159 77367
L90187 77339
" />
<path d="M90469 77395
L90469 76805
" />
<path d="M90469 77030
L90525 77002
L90637 77002
L90694 77030
L90722 77058
L90750 77114
L90750 77283
L90722 77339
L90694 77367
L90637 77395
L90525 77395
L90469 77367
" />
<path d="M91256 77002
L91256 77395
" />
<path d="M91003 77002
L91003 77311
L91031 77367
L91087 77395
L91172 77395
L91228 77367
L91256 77339
" />
<path d="M91537 77002
L91537 77395
" />
<path d="M91537 77058
L91565 77030
L91622 77002
L91706 77002
L91762 77030
L91790 77086
L91790 77395
" />
<path d="M91987 77002
L92212 77002
" />
<path d="M92072 76805
L92072 77311
L92100 77367
L92156 77395
L92212 77395
" />
<path d="M92662 77002
L92662 77395
" />
<path d="M92409 77002
L92409 77311
L92437 77367
L92493 77395
L92578 77395
L92634 77367
L92662 77339
" />
<path d="M93253 77395
L92915 77395
" />
<path d="M93084 77395
L93084 76805
L93028 76889
L92971 76946
L92915 76974
" />
<path d="M93759 76805
L93646 76805
L93590 76833
L93562 76861
L93506 76946
L93478 77058
L93478 77283
L93506 77339
L93534 77367
L93590 77395
L93703 77395
L93759 77367
L93787 77339
L93815 77283
L93815 77142
L93787 77086
L93759 77058
L93703 77030
L93590 77030
L93534 77058
L93506 77086
L93478 77142
" />
<path d="M94068 77339
L94096 77367
L94068 77395
L94040 77367
L94068 77339
L94068 77395
" />
<path d="M94462 76805
L94518 76805
L94574 76833
L94602 76861
L94631 76917
L94659 77030
L94659 77171
L94631 77283
L94602 77339
L94574 77367
L94518 77395
L94462 77395
L94406 77367
L94377 77339
L94349 77283
L94321 77171
L94321 77030
L94349 76917
L94377 76861
L94406 76833
L94462 76805
" />
<path d="M95165 77002
L95165 77395
" />
<path d="M95024 76777
L94884 77199
L95249 77199
" />
<path d="M95474 77339
L95502 77367
L95474 77395
L95446 77367
L95474 77339
L95474 77395
" />
<path d="M96065 77395
L95727 77395
" />
<path d="M95896 77395
L95896 76805
L95840 76889
L95784 76946
L95727 76974
" />
</g>
<g style="fill:#000000; fill-opacity:0.0; 
stroke:#000000; stroke-width:39.3701; stroke-opacity:1; 
stroke-linecap:round; stroke-linejoin:round;">
</g>
<g style="fill:#000000; fill-opacity:0.0; 
stroke:#000000; stroke-width:59.0551; stroke-opacity:1; 
stroke-linecap:round; stroke-linejoin:round;">
<path d="M69685 75396
L112205 75396
" />
</g>
<g style="fill:#000000; fill-opacity:0.0; 
stroke:#000000; stroke-width:39.3701; stroke-opacity:1; 
stroke-linecap:round; stroke-linejoin:round;">
</g>
<g style="fill:#000000; fill-opacity:0.0; 
stroke:#000000; stroke-width:118.11; stroke-opacity:1; 
stroke-linecap:round; stroke-linejoin:round;">
<path d="M104099 76293
L103902 76012
" />
<path d="M103761 76293
L103761 75703
L103986 75703
L104042 75731
L104070 75759
L104099 75815
L104099 75899
L104070 75956
L104042 75984
L103986 76012
L103761 76012
" />
<path d="M104577 76265
L104520 76293
L104408 76293
L104352 76265
L104323 76209
L104323 75984
L104352 75928
L104408 75899
L104520 75899
L104577 75928
L104605 75984
L104605 76040
L104323 76096
" />
<path d="M104802 75899
L104942 76293
L105083 75899
" />
<path d="M105308 76237
L105336 76265
L105308 76293
L105280 76265
L105308 76237
L105308 76293
" />
<path d="M105308 75928
L105336 75956
L105308 75984
L105280 75956
L105308 75928
L105308 75984
" />
</g>
<g style="fill:#000000; fill-opacity:0.0; 
stroke:#000000; stroke-width:39.3701; stroke-opacity:1; 
stroke-linecap:round; stroke-linejoin:round;">
</g>
<g style="fill:#000000; fill-opacity:0.0; 
stroke:#000000; stroke-width:59.0551; stroke-opacity:1; 
stroke-linecap:round; stroke-linejoin:round;">
<path d="M70221 76265
L70305 76293
L70446 76293
L70502 76265
L70530 76237
L70559 76181
L70559 76124
L70530 76068
L70502 76040
L70446 76012
L70334 75984
L70277 75956
L70249 75928
L70221 75871
L70221 75815
L70249 75759
L70277 75731
L70334 75703
L70474 75703
L70559 75731
" />
<path d="M70812 76293
L70812 75899
" />
<path d="M70812 75703
L70784 75731
L70812 75759
L70840 75731
L70812 75703
L70812 75759
" />
<path d="M71037 75899
L71346 75899
L71037 76293
L71346 76293
" />
<path d="M71796 76265
L71740 76293
L71627 76293
L71571 76265
L71543 76209
L71543 75984
L71571 75928
L71627 75899
L71740 75899
L71796 75928
L71824 75984
L71824 76040
L71543 76096
" />
<path d="M72077 76237
L72105 76265
L72077 76293
L72049 76265
L72077 76237
L72077 76293
" />
<path d="M72077 75928
L72105 75956
L72077 75984
L72049 75956
L72077 75928
L72077 75984
" />
<path d="M72780 76124
L73061 76124
" />
<path d="M72724 76293
L72921 75703
L73118 76293
" />
<path d="M73568 75899
L73568 76293
" />
<path d="M73427 75674
L73286 76096
L73652 76096
" />
</g>
<g style="fill:#000000; fill-opacity:0.0; 
stroke:#000000; stroke-width:39.3701; stroke-opacity:1; 
stroke-linecap:round; stroke-linejoin:round;">
</g>
<g style="fill:#000000; fill-opacity:0.0; 
stroke:#000000; stroke-width:59.0551; stroke-opacity:1; 
stroke-linecap:round; stroke-linejoin:round;">
<path d="M103714 77395
L103714 76805
" />
<path d="M104248 77395
L104248 76805
" />
<path d="M104248 77367
L104192 77395
L104079 77395
L104023 77367
L103995 77339
L103967 77283
L103967 77114
L103995 77058
L104023 77030
L104079 77002
L104192 77002
L104248 77030
" />
<path d="M104529 77339
L104557 77367
L104529 77395
L104501 77367
L104529 77339
L104529 77395
" />
<path d="M104529 77030
L104557 77058
L104529 77086
L104501 77058
L104529 77030
L104529 77086
" />
<path d="M105570 77395
L105232 77395
" />
<path d="M105401 77395
L105401 76805
L105345 76889
L105289 76946
L105232 76974
" />
<path d="M106245 76777
L105739 77536
" />
<path d="M106751 77395
L106413 77395
" />
<path d="M106582 77395
L106582 76805
L106526 76889
L106470 76946
L106413 76974
" />
</g>
<g style="fill:#000000; fill-opacity:0.0; 
stroke:#000000; stroke-width:39.3701; stroke-opacity:1; 
stroke-linecap:round; stroke-linejoin:round;">
</g>
<g style="fill:#000000; fill-opacity:0.0; 
stroke:#000000; stroke-width:59.0551; stroke-opacity:1; 
stroke-linecap:round; stroke-linejoin:round;">
<path d="M69685 73821
L112205 73821
" />
</g>
<g style="fill:#000000; fill-opacity:0.0; 
stroke:#000000; stroke-width:39.3701; stroke-opacity:1; 
stroke-linecap:round; stroke-linejoin:round;">
</g>
<g style="fill:#000000; fill-opacity:0.0; 
stroke:#000000; stroke-width:157.48; stroke-opacity:1; 
stroke-linecap:round; stroke-linejoin:round;">
<path d="M70360 74099
L70810 74099
" />
<path d="M70486 74886
L70585 74099
" />
<path d="M70974 74886
L71039 74361
" />
<path d="M71072 74099
L71030 74136
L71063 74174
L71105 74136
L71072 74099
L71063 74174
" />
<path d="M71302 74361
L71602 74361
" />
<path d="M71447 74099
L71363 74774
L71391 74849
L71461 74886
L71536 74886
" />
<path d="M71911 74886
L71841 74849
L71813 74774
L71897 74099
" />
<path d="M72516 74849
L72436 74886
L72286 74886
L72216 74849
L72187 74774
L72225 74474
L72272 74399
L72352 74361
L72501 74361
L72572 74399
L72600 74474
L72591 74549
L72206 74624
" />
<path d="M72895 74811
L72928 74849
L72886 74886
L72853 74849
L72895 74811
L72886 74886
" />
<path d="M72947 74399
L72980 74436
L72937 74474
L72905 74436
L72947 74399
L72937 74474
" />
</g>
<g style="fill:#000000; fill-opacity:0.0; 
stroke:#000000; stroke-width:39.3701; stroke-opacity:1; 
stroke-linecap:round; stroke-linejoin:round;">
</g>
<g style="fill:#000000; fill-opacity:0.0; 
stroke:#000000; stroke-width:59.0551; stroke-opacity:1; 
stroke-linecap:round; stroke-linejoin:round;">
<path d="M70446 73070
L70249 73070
" />
<path d="M70249 73380
L70249 72789
L70530 72789
" />
<path d="M70755 73380
L70755 72986
" />
<path d="M70755 72789
L70727 72817
L70755 72845
L70784 72817
L70755 72789
L70755 72845
" />
<path d="M71121 73380
L71065 73352
L71037 73295
L71037 72789
" />
<path d="M71571 73352
L71515 73380
L71402 73380
L71346 73352
L71318 73295
L71318 73070
L71346 73014
L71402 72986
L71515 72986
L71571 73014
L71599 73070
L71599 73127
L71318 73183
" />
<path d="M71852 73323
L71880 73352
L71852 73380
L71824 73352
L71852 73323
L71852 73380
" />
<path d="M71852 73014
L71880 73042
L71852 73070
L71824 73042
L71852 73014
L71852 73070
" />
<path d="M72499 72789
L72696 73380
L72893 72789
" />
<path d="M73090 73380
L73090 72789
L73286 73211
L73483 72789
L73483 73380
" />
<path d="M73764 73155
L74214 73155
" />
<path d="M74467 73352
L74524 73380
L74636 73380
L74692 73352
L74721 73295
L74721 73267
L74692 73211
L74636 73183
L74552 73183
L74496 73155
L74467 73099
L74467 73070
L74496 73014
L74552 72986
L74636 72986
L74692 73014
" />
<path d="M75199 73352
L75142 73380
L75030 73380
L74974 73352
L74946 73295
L74946 73070
L74974 73014
L75030 72986
L75142 72986
L75199 73014
L75227 73070
L75227 73127
L74946 73183
" />
<path d="M75480 72986
L75480 73380
" />
<path d="M75480 73042
L75508 73014
L75564 72986
L75649 72986
L75705 73014
L75733 73070
L75733 73380
" />
<path d="M75986 73352
L76042 73380
L76155 73380
L76211 73352
L76239 73295
L76239 73267
L76211 73211
L76155 73183
L76070 73183
L76014 73155
L75986 73099
L75986 73070
L76014 73014
L76070 72986
L76155 72986
L76211 73014
" />
<path d="M76577 73380
L76520 73352
L76492 73323
L76464 73267
L76464 73099
L76492 73042
L76520 73014
L76577 72986
L76661 72986
L76717 73014
L76745 73042
L76773 73099
L76773 73267
L76745 73323
L76717 73352
L76661 73380
L76577 73380
" />
<path d="M77027 73380
L77027 72986
" />
<path d="M77027 73099
L77055 73042
L77083 73014
L77139 72986
L77195 72986
" />
<path d="M77392 73155
L77842 73155
" />
<path d="M78123 73380
L78123 72789
L78348 72789
L78404 72817
L78433 72845
L78461 72902
L78461 72986
L78433 73042
L78404 73070
L78348 73099
L78123 73099
" />
<path d="M78629 72789
L78967 72789
" />
<path d="M78798 73380
L78798 72789
" />
<path d="M79473 73380
L79136 73380
" />
<path d="M79304 73380
L79304 72789
L79248 72874
L79192 72930
L79136 72958
" />
<path d="M79839 72789
L79895 72789
L79951 72817
L79979 72845
L80007 72902
L80036 73014
L80036 73155
L80007 73267
L79979 73323
L79951 73352
L79895 73380
L79839 73380
L79782 73352
L79754 73323
L79726 73267
L79698 73155
L79698 73014
L79726 72902
L79754 72845
L79782 72817
L79839 72789
" />
<path d="M80401 72789
L80457 72789
L80514 72817
L80542 72845
L80570 72902
L80598 73014
L80598 73155
L80570 73267
L80542 73323
L80514 73352
L80457 73380
L80401 73380
L80345 73352
L80317 73323
L80289 73267
L80260 73155
L80260 73014
L80289 72902
L80317 72845
L80345 72817
L80401 72789
" />
<path d="M80964 72789
L81020 72789
L81076 72817
L81104 72845
L81132 72902
L81160 73014
L81160 73155
L81132 73267
L81104 73323
L81076 73352
L81020 73380
L80964 73380
L80907 73352
L80879 73323
L80851 73267
L80823 73155
L80823 73014
L80851 72902
L80879 72845
L80907 72817
L80964 72789
" />
<path d="M81413 73323
L81442 73352
L81413 73380
L81385 73352
L81413 73323
L81413 73380
" />
<path d="M81695 73380
L81695 72789
" />
<path d="M81751 73155
L81920 73380
" />
<path d="M81920 72986
L81695 73211
" />
<path d="M82173 73380
L82173 72986
" />
<path d="M82173 72789
L82145 72817
L82173 72845
L82201 72817
L82173 72789
L82173 72845
" />
<path d="M82707 73352
L82651 73380
L82538 73380
L82482 73352
L82454 73323
L82426 73267
L82426 73099
L82454 73042
L82482 73014
L82538 72986
L82651 72986
L82707 73014
" />
<path d="M83213 73380
L83213 73070
L83185 73014
L83129 72986
L83016 72986
L82960 73014
" />
<path d="M83213 73352
L83157 73380
L83016 73380
L82960 73352
L82932 73295
L82932 73239
L82960 73183
L83016 73155
L83157 73155
L83213 73127
" />
<path d="M83748 73380
L83748 72789
" />
<path d="M83748 73352
L83691 73380
L83579 73380
L83523 73352
L83494 73323
L83466 73267
L83466 73099
L83494 73042
L83523 73014
L83579 72986
L83691 72986
L83748 73014
" />
<path d="M83888 73436
L84338 73436
" />
<path d="M84479 72986
L84479 73577
" />
<path d="M84479 73014
L84535 72986
L84647 72986
L84704 73014
L84732 73042
L84760 73099
L84760 73267
L84732 73323
L84704 73352
L84647 73380
L84535 73380
L84479 73352
" />
<path d="M85266 73352
L85210 73380
L85097 73380
L85041 73352
L85013 73323
L84985 73267
L84985 73099
L85013 73042
L85041 73014
L85097 72986
L85210 72986
L85266 73014
" />
<path d="M85519 73380
L85519 72789
" />
<path d="M85519 73014
L85575 72986
L85688 72986
L85744 73014
L85772 73042
L85800 73099
L85800 73267
L85772 73323
L85744 73352
L85688 73380
L85575 73380
L85519 73352
" />
</g>
<g style="fill:#000000; fill-opacity:0.0; 
stroke:#000000; stroke-width:39.3701; stroke-opacity:1; 
stroke-linecap:round; stroke-linejoin:round;">
</g>
<g style="fill:#000000; fill-opacity:0.0; 
stroke:#000000; stroke-width:59.0551; stroke-opacity:1; 
stroke-linecap:round; stroke-linejoin:round;">
<path d="M69685 71459
L112205 71459
" />
</g>
<g style="fill:#000000; fill-opacity:0.0; 
stroke:#000000; stroke-width:39.3701; stroke-opacity:1; 
stroke-linecap:round; stroke-linejoin:round;">
</g>
<g style="fill:#000000; fill-opacity:0.0; 
stroke:#000000; stroke-width:59.0551; stroke-opacity:1; 
stroke-linecap:round; stroke-linejoin:round;">
<path d="M70221 72289
L70305 72317
L70446 72317
L70502 72289
L70530 72260
L70559 72204
L70559 72148
L70530 72092
L70502 72064
L70446 72036
L70334 72007
L70277 71979
L70249 71951
L70221 71895
L70221 71839
L70249 71782
L70277 71754
L70334 71726
L70474 71726
L70559 71754
" />
<path d="M70812 72317
L70812 71726
" />
<path d="M71065 72317
L71065 72007
L71037 71951
L70980 71923
L70896 71923
L70840 71951
L70812 71979
" />
<path d="M71571 72289
L71515 72317
L71402 72317
L71346 72289
L71318 72232
L71318 72007
L71346 71951
L71402 71923
L71515 71923
L71571 71951
L71599 72007
L71599 72064
L71318 72120
" />
<path d="M72077 72289
L72021 72317
L71908 72317
L71852 72289
L71824 72232
L71824 72007
L71852 71951
L71908 71923
L72021 71923
L72077 71951
L72105 72007
L72105 72064
L71824 72120
" />
<path d="M72274 71923
L72499 71923
" />
<path d="M72358 71726
L72358 72232
L72386 72289
L72443 72317
L72499 72317
" />
<path d="M72696 72260
L72724 72289
L72696 72317
L72668 72289
L72696 72260
L72696 72317
" />
<path d="M72696 71951
L72724 71979
L72696 72007
L72668 71979
L72696 71951
L72696 72007
" />
</g>
<g style="fill:#000000; fill-opacity:0.0; 
stroke:#000000; stroke-width:39.3701; stroke-opacity:1; 
stroke-linecap:round; stroke-linejoin:round;">
</g>
<g style="fill:#000000; fill-opacity:0.0; 
stroke:#000000; stroke-width:59.0551; stroke-opacity:1; 
stroke-linecap:round; stroke-linejoin:round;">
<path d="M77559 75396
L77559 76577
" />
</g>
<g style="fill:#000000; fill-opacity:0.0; 
stroke:#000000; stroke-width:39.3701; stroke-opacity:1; 
stroke-linecap:round; stroke-linejoin:round;">
</g>
<g style="fill:#000000; fill-opacity:0.0; 
stroke:#000000; stroke-width:59.0551; stroke-opacity:1; 
stroke-linecap:round; stroke-linejoin:round;">
<path d="M102756 75396
L102756 77955
" />
</g>
<g style="fill:#840000; fill-opacity:0.0; 
stroke:#840000; stroke-width:59.0551; stroke-opacity:1; 
stroke-linecap:round; stroke-linejoin:round;">
</g>
<g style="fill:#840000; fill-opacity:1.0; 
stroke:#840000; stroke-width:0; stroke-opacity:1; 
stroke-linecap:round; stroke-linejoin:round;">
<circle cx="45900" cy="24800" r="669.291" /> 
</g>
<g style="fill:#840000; fill-opacity:1.0; 
stroke:#840000; stroke-width:39.3701; stroke-opacity:1; 
stroke-linecap:round; stroke-linejoin:round;">
</g>
<g style="fill:#840000; fill-opacity:1.0; 
stroke:#840000; stroke-width:0; stroke-opacity:1; 
stroke-linecap:round; stroke-linejoin:round;">
<circle cx="45900" cy="32000" r="669.291" /> 
</g>
<g style="fill:#840000; fill-opacity:1.0; 
stroke:#840000; stroke-width:39.3701; stroke-opacity:1; 
stroke-linecap:round; stroke-linejoin:round;">
</g>
<g style="fill:#840000; fill-opacity:1.0; 
stroke:#840000; stroke-width:0; stroke-opacity:1; 
stroke-linecap:round; stroke-linejoin:round;">
<circle cx="53900" cy="24700" r="669.291" /> 
</g>
<g style="fill:#840000; fill-opacity:1.0; 
stroke:#840000; stroke-width:39.3701; stroke-opacity:1; 
stroke-linecap:round; stroke-linejoin:round;">
</g>
<g style="fill:#840000; fill-opacity:1.0; 
stroke:#840000; stroke-width:957.48; stroke-opacity:1; 
stroke-linecap:round; stroke-linejoin:round;">
</g>
<g style="fill:#840000; fill-opacity:0.0; 
stroke:#840000; stroke-width:957.48; stroke-opacity:1; 
stroke-linecap:round; stroke-linejoin:round;">
<path d="M53300 32000
L53300 32000
" />
</g>
<g style="fill:#840000; fill-opacity:0.0; 
stroke:#840000; stroke-width:0; stroke-opacity:1; 
stroke-linecap:round; stroke-linejoin:round;">
</g>
<g style="fill:#840000; fill-opacity:1.0; 
stroke:#840000; stroke-width:0; stroke-opacity:1; 
stroke-linecap:round; stroke-linejoin:round;">
<polyline style="fill-rule:evenodd;"
points="52778,32478
51821,32478
51821,31521
52778,31521
52778,32478
" /> 
<polyline style="fill-rule:evenodd;"
points="47981,31481
49018,31481
49018,32518
47981,32518
47981,31481
" /> 
<circle cx="48440.9" cy="25000" r="669.291" /> 
</g>
<g style="fill:#840000; fill-opacity:1.0; 
stroke:#840000; stroke-width:39.3701; stroke-opacity:1; 
stroke-linecap:round; stroke-linejoin:round;">
</g>
<g style="fill:#840000; fill-opacity:1.0; 
stroke:#840000; stroke-width:0; stroke-opacity:1; 
stroke-linecap:round; stroke-linejoin:round;">
<circle cx="50000" cy="25000" r="669.291" /> 
</g>
<g style="fill:#840000; fill-opacity:1.0; 
stroke:#840000; stroke-width:39.3701; stroke-opacity:1; 
stroke-linecap:round; stroke-linejoin:round;">
</g>
<g style="fill:#840000; fill-opacity:1.0; 
stroke:#840000; stroke-width:0; stroke-opacity:1; 
stroke-linecap:round; stroke-linejoin:round;">
<polyline style="fill-rule:evenodd;"
points="52228,24330
52228,25669
50889,25669
50889,24330
52228,24330
" /> 
</g>
<g style="fill:#000000; fill-opacity:1.0; 
stroke:#000000; stroke-width:0; stroke-opacity:1; 
stroke-linecap:round; stroke-linejoin:round;">
</g>
<g style="fill:#840000; fill-opacity:1.0; 
stroke:#840000; stroke-width:0; stroke-opacity:1; 
stroke-linecap:round; stroke-linejoin:round;">
<circle cx="45900" cy="24800" r="590.551" /> 
</g>
<g style="fill:#840000; fill-opacity:1.0; 
stroke:#840000; stroke-width:39.3701; stroke-opacity:1; 
stroke-linecap:round; stroke-linejoin:round;">
</g>
<g style="fill:#840000; fill-opacity:1.0; 
stroke:#840000; stroke-width:0; stroke-opacity:1; 
stroke-linecap:round; stroke-linejoin:round;">
<circle cx="45900" cy="32000" r="590.551" /> 
</g>
<g style="fill:#840000; fill-opacity:1.0; 
stroke:#840000; stroke-width:39.3701; stroke-opacity:1; 
stroke-linecap:round; stroke-linejoin:round;">
</g>
<g style="fill:#840000; fill-opacity:1.0; 
stroke:#840000; stroke-width:0; stroke-opacity:1; 
stroke-linecap:round; stroke-linejoin:round;">
<circle cx="53900" cy="24700" r="590.551" /> 
</g>
<g style="fill:#840000; fill-opacity:1.0; 
stroke:#840000; stroke-width:39.3701; stroke-opacity:1; 
stroke-linecap:round; stroke-linejoin:round;">
</g>
<g style="fill:#840000; fill-opacity:1.0; 
stroke:#840000; stroke-width:800; stroke-opacity:1; 
stroke-linecap:round; stroke-linejoin:round;">
</g>
<g style="fill:#840000; fill-opacity:0.0; 
stroke:#840000; stroke-width:800; stroke-opacity:1; 
stroke-linecap:round; stroke-linejoin:round;">
<path d="M53300 32000
L53300 32000
" />
</g>
<g style="fill:#840000; fill-opacity:0.0; 
stroke:#840000; stroke-width:0; stroke-opacity:1; 
stroke-linecap:round; stroke-linejoin:round;">
</g>
<g style="fill:#840000; fill-opacity:1.0; 
stroke:#840000; stroke-width:0; stroke-opacity:1; 
stroke-linecap:round; stroke-linejoin:round;">
<polyline style="fill-rule:evenodd;"
points="52700,32400
51900,32400
51900,31600
52700,31600
52700,32400
" /> 
<polyline style="fill-rule:evenodd;"
points="48060,31560
48940,31560
48940,32440
48060,32440
48060,31560
" /> 
<circle cx="48440.9" cy="25000" r="590.551" /> 
</g>
<g style="fill:#840000; fill-opacity:1.0; 
stroke:#840000; stroke-width:39.3701; stroke-opacity:1; 
stroke-linecap:round; stroke-linejoin:round;">
</g>
<g style="fill:#840000; fill-opacity:1.0; 
stroke:#840000; stroke-width:0; stroke-opacity:1; 
stroke-linecap:round; stroke-linejoin:round;">
<circle cx="50000" cy="25000" r="590.551" /> 
</g>
<g style="fill:#840000; fill-opacity:1.0; 
stroke:#840000; stroke-width:39.3701; stroke-opacity:1; 
stroke-linecap:round; stroke-linejoin:round;">
</g>
<g style="fill:#840000; fill-opacity:1.0; 
stroke:#840000; stroke-width:0; stroke-opacity:1; 
stroke-linecap:round; stroke-linejoin:round;">
<polyline style="fill-rule:evenodd;"
points="52149,24409
52149,25590
50968,25590
50968,24409
52149,24409
" /> 
</g>
<g style="fill:#FFFFFF; fill-opacity:1.0; 
stroke:#FFFFFF; stroke-width:0; stroke-opacity:1; 
stroke-linecap:round; stroke-linejoin:round;">
<circle cx="45900" cy="24800" r="393.701" /> 
</g>
<g style="fill:#FFFFFF; fill-opacity:1.0; 
stroke:#FFFFFF; stroke-width:39.3701; stroke-opacity:1; 
stroke-linecap:round; stroke-linejoin:round;">
</g>
<g style="fill:#FFFFFF; fill-opacity:1.0; 
stroke:#FFFFFF; stroke-width:0; stroke-opacity:1; 
stroke-linecap:round; stroke-linejoin:round;">
<circle cx="45900" cy="32000" r="393.701" /> 
</g>
<g style="fill:#FFFFFF; fill-opacity:1.0; 
stroke:#FFFFFF; stroke-width:39.3701; stroke-opacity:1; 
stroke-linecap:round; stroke-linejoin:round;">
</g>
<g style="fill:#FFFFFF; fill-opacity:1.0; 
stroke:#FFFFFF; stroke-width:0; stroke-opacity:1; 
stroke-linecap:round; stroke-linejoin:round;">
<circle cx="53900" cy="24700" r="393.701" /> 
</g>
<g style="fill:#FFFFFF; fill-opacity:1.0; 
stroke:#FFFFFF; stroke-width:39.3701; stroke-opacity:1; 
stroke-linecap:round; stroke-linejoin:round;">
</g>
<g style="fill:#FFFFFF; fill-opacity:1.0; 
stroke:#FFFFFF; stroke-width:0; stroke-opacity:1; 
stroke-linecap:round; stroke-linejoin:round;">
<circle cx="53300" cy="32000" r="200" /> 
</g>
<g style="fill:#FFFFFF; fill-opacity:1.0; 
stroke:#FFFFFF; stroke-width:39.3701; stroke-opacity:1; 
stroke-linecap:round; stroke-linejoin:round;">
</g>
<g style="fill:#FFFFFF; fill-opacity:1.0; 
stroke:#FFFFFF; stroke-width:0; stroke-opacity:1; 
stroke-linecap:round; stroke-linejoin:round;">
<circle cx="52300" cy="32000" r="200" /> 
</g>
<g style="fill:#FFFFFF; fill-opacity:1.0; 
stroke:#FFFFFF; stroke-width:39.3701; stroke-opacity:1; 
stroke-linecap:round; stroke-linejoin:round;">
</g>
<g style="fill:#FFFFFF; fill-opacity:1.0; 
stroke:#FFFFFF; stroke-width:0; stroke-opacity:1; 
stroke-linecap:round; stroke-linejoin:round;">
<circle cx="48500" cy="32000" r="200" /> 
</g>
<g style="fill:#FFFFFF; fill-opacity:1.0; 
stroke:#FFFFFF; stroke-width:39.3701; stroke-opacity:1; 
stroke-linecap:round; stroke-linejoin:round;">
</g>
<g style="fill:#FFFFFF; fill-opacity:1.0; 
stroke:#FFFFFF; stroke-width:0; stroke-opacity:1; 
stroke-linecap:round; stroke-linejoin:round;">
<circle cx="48440.9" cy="25000" r="354.331" /> 
</g>
<g style="fill:#FFFFFF; fill-opacity:1.0; 
stroke:#FFFFFF; stroke-width:39.3701; stroke-opacity:1; 
stroke-linecap:round; stroke-linejoin:round;">
</g>
<g style="fill:#FFFFFF; fill-opacity:1.0; 
stroke:#FFFFFF; stroke-width:0; stroke-opacity:1; 
stroke-linecap:round; stroke-linejoin:round;">
<circle cx="50000" cy="25000" r="354.331" /> 
</g>
<g style="fill:#FFFFFF; fill-opacity:1.0; 
stroke:#FFFFFF; stroke-width:39.3701; stroke-opacity:1; 
stroke-linecap:round; stroke-linejoin:round;">
</g>
<g style="fill:#FFFFFF; fill-opacity:1.0; 
stroke:#FFFFFF; stroke-width:0; stroke-opacity:1; 
stroke-linecap:round; stroke-linejoin:round;">
<circle cx="51559.1" cy="25000" r="354.331" /> 
</g>
<g style="fill:#FFFFFF; fill-opacity:1.0; 
stroke:#FFFFFF; stroke-width:39.3701; stroke-opacity:1; 
stroke-linecap:round; stroke-linejoin:round;">
</g>
<g style="fill:#000000; fill-opacity:1.0; 
stroke:#000000; stroke-width:39.3701; stroke-opacity:1; 
stroke-linecap:round; stroke-linejoin:round;">
</g>
<g style="fill:#840000; fill-opacity:1.0; 
stroke:#840000; stroke-width:39.3701; stroke-opacity:1; 
stroke-linecap:round; stroke-linejoin:round;">
</g>
<g style="fill:#840000; fill-opacity:1.0; 
stroke:#840000; stroke-width:0; stroke-opacity:1; 
stroke-linecap:round; stroke-linejoin:round;">
<circle cx="45900" cy="24800" r="590.551" /> 
</g>
<g style="fill:#840000; fill-opacity:1.0; 
stroke:#840000; stroke-width:39.3701; stroke-opacity:1; 
stroke-linecap:round; stroke-linejoin:round;">
</g>
<g style="fill:#840000; fill-opacity:1.0; 
stroke:#840000; stroke-width:0; stroke-opacity:1; 
stroke-linecap:round; stroke-linejoin:round;">
<circle cx="45900" cy="32000" r="590.551" /> 
</g>
<g style="fill:#840000; fill-opacity:1.0; 
stroke:#840000; stroke-width:39.3701; stroke-opacity:1; 
stroke-linecap:round; stroke-linejoin:round;">
</g>
<g style="fill:#840000; fill-opacity:1.0; 
stroke:#840000; stroke-width:0; stroke-opacity:1; 
stroke-linecap:round; stroke-linejoin:round;">
<circle cx="53900" cy="24700" r="590.551" /> 
</g>
<g style="fill:#840000; fill-opacity:1.0; 
stroke:#840000; stroke-width:39.3701; stroke-opacity:1; 
stroke-linecap:round; stroke-linejoin:round;">
</g>
<g style="fill:#840000; fill-opacity:1.0; 
stroke:#840000; stroke-width:800; stroke-opacity:1; 
stroke-linecap:round; stroke-linejoin:round;">
</g>
<g style="fill:#840000; fill-opacity:0.0; 
stroke:#840000; stroke-width:800; stroke-opacity:1; 
stroke-linecap:round; stroke-linejoin:round;">
<path d="M53300 32000
L53300 32000
" />
</g>
<g style="fill:#840000; fill-opacity:0.0; 
stroke:#840000; stroke-width:0; stroke-opacity:1; 
stroke-linecap:round; stroke-linejoin:round;">
</g>
<g style="fill:#840000; fill-opacity:1.0; 
stroke:#840000; stroke-width:0; stroke-opacity:1; 
stroke-linecap:round; stroke-linejoin:round;">
<polyline style="fill-rule:evenodd;"
points="52700,32400
51900,32400
51900,31600
52700,31600
52700,32400
" /> 
<polyline style="fill-rule:evenodd;"
points="48060,31560
48940,31560
48940,32440
48060,32440
48060,31560
" /> 
<circle cx="48440.9" cy="25000" r="590.551" /> 
</g>
<g style="fill:#840000; fill-opacity:1.0; 
stroke:#840000; stroke-width:39.3701; stroke-opacity:1; 
stroke-linecap:round; stroke-linejoin:round;">
</g>
<g style="fill:#840000; fill-opacity:1.0; 
stroke:#840000; stroke-width:0; stroke-opacity:1; 
stroke-linecap:round; stroke-linejoin:round;">
<circle cx="50000" cy="25000" r="590.551" /> 
</g>
<g style="fill:#840000; fill-opacity:1.0; 
stroke:#840000; stroke-width:39.3701; stroke-opacity:1; 
stroke-linecap:round; stroke-linejoin:round;">
</g>
<g style="fill:#840000; fill-opacity:1.0; 
stroke:#840000; stroke-width:0; stroke-opacity:1; 
stroke-linecap:round; stroke-linejoin:round;">
<polyline style="fill-rule:evenodd;"
points="52149,24409
52149,25590
50968,25590
50968,24409
52149,24409
" /> 
<polyline style="fill-rule:evenodd;"
points="51366,27889
51366,27299
52153,27299
52153,27889
51366,27889
" /> 
<polyline style="fill-rule:evenodd;"
points="51366,29700
51366,29110
52153,29110
52153,29700
51366,29700
" /> 
<polyline style="fill-rule:evenodd;"
points="51366,28795
51366,28204
52153,28204
52153,28795
51366,28795
" /> 
<polyline style="fill-rule:evenodd;"
points="53846,29248
53846,27751
54633,27751
54633,29248
53846,29248
" /> 
<polyline style="fill-rule:evenodd;"
points="48725,28746
48725,29001
48308,29001
48308,28746
48725,28746
" /> 
<polyline style="fill-rule:evenodd;"
points="48725,27998
48725,28253
48308,28253
48308,27998
48725,27998
" /> 
<polyline style="fill-rule:evenodd;"
points="49591,27998
49591,28253
49174,28253
49174,27998
49591,27998
" /> 
<polyline style="fill-rule:evenodd;"
points="49591,28372
49591,28627
49174,28627
49174,28372
49591,28372
" /> 
<polyline style="fill-rule:evenodd;"
points="49591,28746
49591,29001
49174,29001
49174,28746
49591,28746
" /> 
<polyline style="fill-rule:evenodd;"
points="53196,30746
53196,30253
53590,30253
53590,30746
53196,30746
" /> 
<polyline style="fill-rule:evenodd;"
points="52409,30746
52409,30253
52803,30253
52803,30746
52409,30746
" /> 
<polyline style="fill-rule:evenodd;"
points="52409,26746
52409,26253
52803,26253
52803,26746
52409,26746
" /> 
<polyline style="fill-rule:evenodd;"
points="53196,26746
53196,26253
53590,26253
53590,26746
53196,26746
" /> 
<polyline style="fill-rule:evenodd;"
points="47253,29609
47746,29609
47746,30003
47253,30003
47253,29609
" /> 
<polyline style="fill-rule:evenodd;"
points="47253,30396
47746,30396
47746,30790
47253,30790
47253,30396
" /> 
<polyline style="fill-rule:evenodd;"
points="49746,30003
49253,30003
49253,29609
49746,29609
49746,30003
" /> 
<polyline style="fill-rule:evenodd;"
points="49746,30790
49253,30790
49253,30396
49746,30396
49746,30790
" /> 
<polyline style="fill-rule:evenodd;"
points="45613,28244
45613,28755
45338,28755
45338,28244
45613,28244
" /> 
<polyline style="fill-rule:evenodd;"
points="46361,28244
46361,28755
46086,28755
46086,28244
46361,28244
" /> 
<polyline style="fill-rule:evenodd;"
points="46086,29705
46086,29194
46361,29194
46361,29705
46086,29705
" /> 
<polyline style="fill-rule:evenodd;"
points="45338,29705
45338,29194
45613,29194
45613,29705
45338,29705
" /> 
<polyline style="fill-rule:evenodd;"
points="46361,27344
46361,27855
46086,27855
46086,27344
46361,27344
" /> 
<polyline style="fill-rule:evenodd;"
points="45613,27344
45613,27855
45338,27855
45338,27344
45613,27344
" /> 
<polyline style="fill-rule:evenodd;"
points="47755,27311
47244,27311
47244,27036
47755,27036
47755,27311
" /> 
<polyline style="fill-rule:evenodd;"
points="47755,26563
47244,26563
47244,26288
47755,26288
47755,26563
" /> 
<polyline style="fill-rule:evenodd;"
points="47244,28736
47755,28736
47755,29011
47244,29011
47244,28736
" /> 
<polyline style="fill-rule:evenodd;"
points="47244,27988
47755,27988
47755,28263
47244,28263
47244,27988
" /> 
<polyline style="fill-rule:evenodd;"
points="48755,27311
48244,27311
48244,27036
48755,27036
48755,27311
" /> 
<polyline style="fill-rule:evenodd;"
points="48755,26563
48244,26563
48244,26288
48755,26288
48755,26563
" /> 
<polyline style="fill-rule:evenodd;"
points="49244,26308
49755,26308
49755,26583
49244,26583
49244,26308
" /> 
<polyline style="fill-rule:evenodd;"
points="49244,27056
49755,27056
49755,27331
49244,27331
49244,27056
" /> 
<polyline style="fill-rule:evenodd;"
points="48755,29963
48244,29963
48244,29688
48755,29688
48755,29963
" /> 
<polyline style="fill-rule:evenodd;"
points="48755,30711
48244,30711
48244,30436
48755,30436
48755,30711
" /> 
</g>
<g style="fill:#840000; fill-opacity:1.0; 
stroke:#840000; stroke-width:393.701; stroke-opacity:1; 
stroke-linecap:round; stroke-linejoin:round;">
</g>
<g style="fill:#840000; fill-opacity:0.0; 
stroke:#840000; stroke-width:393.701; stroke-opacity:1; 
stroke-linecap:round; stroke-linejoin:round;">
<path d="M52606 30500
L52606 29706
" />
<path d="M52606 29706
L52305 29405
" />
<path d="M52305 29405
L51759 29405
" />
<path d="M52606 30500
L52300 30806
" />
<path d="M52300 30806
L52300 32000
" />
</g>
<g style="fill:#840000; fill-opacity:0.0; 
stroke:#840000; stroke-width:157.48; stroke-opacity:1; 
stroke-linecap:round; stroke-linejoin:round;">
<path d="M46224 29450
L46224 30024
" />
<path d="M46224 30024
L46793 30593
" />
<path d="M53300 32000
L53300 32565
" />
<path d="M53300 32565
L53015 32850
" />
<path d="M53015 32850
L51050 32850
" />
<path d="M51050 32850
L50100 31900
" />
<path d="M50100 31900
L50100 29800
" />
<path d="M50100 29800
L50100 29400
" />
<path d="M49500 29806
L50093 29806
" />
<path d="M50093 29806
L50100 29800
" />
<path d="M47500 30593
L46793 30593
" />
<path d="M47500 30593
L47606 30593
" />
<path d="M47606 30593
L48000 30200
" />
<path d="M49106 30200
L49500 29806
" />
<path d="M48000 30200
L49106 30200
" />
<path d="M50100 29400
L50100 28500
" />
<path d="M49383 28500
L50100 28500
" />
<path d="M50100 28500
L51005 27594
" />
<path d="M51005 27594
L51759 27594
" />
</g>
<g style="fill:#840000; fill-opacity:0.0; 
stroke:#840000; stroke-width:275.591; stroke-opacity:1; 
stroke-linecap:round; stroke-linejoin:round;">
<path d="M53393 30500
L53393 31906
" />
<path d="M53393 31906
L53300 32000
" />
</g>
<g style="fill:#840000; fill-opacity:0.0; 
stroke:#840000; stroke-width:157.48; stroke-opacity:1; 
stroke-linecap:round; stroke-linejoin:round;">
<path d="M53393 30500
L53800 30500
" />
<path d="M53800 30500
L54240 30059
" />
<path d="M54240 30059
L54240 28500
" />
<path d="M51559 25000
L51559 25866
" />
<path d="M51559 25866
L51064 26361
" />
<path d="M51064 26361
L51064 26445
" />
<path d="M53393 26500
L53800 26500
" />
<path d="M53800 26500
L54240 26940
" />
<path d="M54240 26940
L54240 28500
" />
<path d="M49500 26445
L51064 26445
" />
<path d="M51064 26445
L51759 27141
" />
<path d="M51759 27141
L51759 27594
" />
</g>
<g style="fill:#840000; fill-opacity:0.0; 
stroke:#840000; stroke-width:275.591; stroke-opacity:1; 
stroke-linecap:round; stroke-linejoin:round;">
<path d="M46800 26900
L46800 25800
" />
<path d="M52606 24156
L52606 26500
" />
<path d="M46800 25800
L47200 25400
" />
<path d="M47200 25400
L47200 24400
" />
<path d="M47200 24400
L47650 23950
" />
<path d="M47650 23950
L52400 23950
" />
<path d="M52400 23950
L52606 24156
" />
</g>
<g style="fill:#840000; fill-opacity:0.0; 
stroke:#840000; stroke-width:157.48; stroke-opacity:1; 
stroke-linecap:round; stroke-linejoin:round;">
<path d="M46224 28500
L46100 28500
" />
<path d="M46050 26900
L46800 26900
" />
<path d="M46100 28500
L45850 28250
" />
<path d="M45850 28250
L45850 27100
" />
<path d="M45850 27100
L46050 26900
" />
<path d="M46224 28500
L46419 28500
" />
<path d="M46419 28500
L46800 28880
" />
<path d="M46224 28500
L46200 28500
" />
</g>
<g style="fill:#840000; fill-opacity:0.0; 
stroke:#840000; stroke-width:275.591; stroke-opacity:1; 
stroke-linecap:round; stroke-linejoin:round;">
<path d="M47381 27174
L47074 27174
" />
<path d="M47074 27174
L46800 26900
" />
<path d="M52606 26500
L52606 28143
" />
<path d="M52606 28143
L52250 28500
" />
<path d="M52250 28500
L51759 28500
" />
</g>
<g style="fill:#840000; fill-opacity:0.0; 
stroke:#840000; stroke-width:157.48; stroke-opacity:1; 
stroke-linecap:round; stroke-linejoin:round;">
<path d="M47500 27174
L47381 27174
" />
<path d="M46800 28880
L46800 29600
" />
<path d="M46800 29600
L47006 29806
" />
<path d="M47006 29806
L47500 29806
" />
<path d="M48525 28874
L48950 28450
" />
<path d="M48950 28450
L48950 27850
" />
</g>
<g style="fill:#840000; fill-opacity:0.0; 
stroke:#840000; stroke-width:275.591; stroke-opacity:1; 
stroke-linecap:round; stroke-linejoin:round;">
<path d="M48950 27850
L48750 27650
" />
<path d="M48750 27650
L47975 27650
" />
<path d="M47975 27650
L47500 27174
" />
</g>
<g style="fill:#840000; fill-opacity:0.0; 
stroke:#840000; stroke-width:157.48; stroke-opacity:1; 
stroke-linecap:round; stroke-linejoin:round;">
<path d="M48500 30574
L48500 32000
" />
<path d="M48500 30574
L49480 30574
" />
<path d="M49480 30574
L49500 30593
" />
<path d="M45475 28500
L45475 27600
" />
<path d="M45475 29450
L45475 28500
" />
<path d="M46224 27600
L46650 27600
" />
<path d="M47500 28125
L47175 28125
" />
<path d="M47175 28125
L46650 27600
" />
<path d="M48516 28125
L47500 28125
" />
<path d="M48500 29825
L48674 29825
" />
<path d="M48674 29825
L49383 29116
" />
<path d="M49383 29116
L49383 28874
" />
<path d="M48500 29825
L48451 29825
" />
<path d="M48451 29825
L47500 28874
" />
<path d="M47500 28874
L47450 28874
" />
<path d="M49500 27194
L49500 28009
" />
<path d="M49500 28009
L49383 28125
" />
<path d="M48500 27174
L49480 27174
" />
<path d="M49480 27174
L49500 27194
" />
</g>
<g style="fill:#840000; fill-opacity:0.0; 
stroke:#840000; stroke-width:275.591; stroke-opacity:1; 
stroke-linecap:round; stroke-linejoin:round;">
<path d="M48500 26425
L48500 25059
" />
</g>
<g style="fill:#840000; fill-opacity:0.0; 
stroke:#840000; stroke-width:157.48; stroke-opacity:1; 
stroke-linecap:round; stroke-linejoin:round;">
<path d="M48500 25059
L48440 25000
" />
</g>
<g style="fill:#840000; fill-opacity:0.0; 
stroke:#840000; stroke-width:275.591; stroke-opacity:1; 
stroke-linecap:round; stroke-linejoin:round;">
<path d="M50000 25000
L48440 25000
" />
</g>
<g style="fill:#840000; fill-opacity:0.0; 
stroke:#840000; stroke-width:157.48; stroke-opacity:1; 
stroke-linecap:round; stroke-linejoin:round;">
<path d="M48500 26425
L47500 26425
" />
</g>
<g style="fill:#840000; fill-opacity:1.0; 
stroke:#840000; stroke-width:157.48; stroke-opacity:1; 
stroke-linecap:round; stroke-linejoin:round;">
<polyline style="fill-rule:evenodd;"
points="46935,24135
46913,24162
46891,24188
46890,24190
46889,24191
46872,24222
46856,24252
46855,24254
46854,24256
46844,24289
46834,24322
46833,24324
46833,24326
46829,24360
46826,24394
46825,24398
46825,24398
46825,24398
46825,24400
46825,25245
46535,25535
46513,25562
46491,25588
46490,25590
46489,25591
46472,25622
46456,25652
46455,25654
46454,25656
46444,25689
46434,25722
46433,25724
46433,25726
46429,25760
46426,25794
46425,25798
46425,25798
46425,25798
46425,25800
46425,26585
46050,26585
46021,26587
45992,26590
45990,26590
45988,26591
45960,26599
45933,26607
45931,26608
45929,26608
45904,26622
45878,26635
45877,26636
45875,26637
45853,26656
45830,26674
45828,26676
45828,26676
45828,26676
45827,26677
45627,26877
45608,26899
45590,26922
45589,26923
45588,26924
45574,26950
45560,26975
45560,26977
45559,26978
45550,27006
45541,27034
45541,27036
45541,27037
45538,27066
45535,27095
45535,27098
45535,27098
45535,27098
45535,27100
45535,27106
45338,27106
45291,27111
45247,27124
45206,27146
45170,27176
45140,27212
45118,27253
45105,27297
45100,27344
45100,27855
45105,27902
45118,27946
45140,27987
45161,28012
45161,28087
45140,28112
45118,28153
45105,28197
45100,28244
45100,28755
45105,28802
45118,28846
45140,28887
45161,28912
45161,29037
45140,29062
45118,29103
45105,29147
45100,29194
45100,29705
45105,29752
45118,29796
45140,29837
45170,29873
45206,29903
45247,29925
45291,29938
45338,29943
45613,29943
45660,29938
45704,29925
45745,29903
45781,29873
45811,29837
45826,29808
45839,29837
45869,29883
45908,29922
45954,29952
46004,29973
46058,29984
46133,29984
46202,29914
46202,29471
46194,29471
46194,29428
46202,29428
46202,29420
46245,29420
46245,29428
46253,29428
46253,29471
46245,29471
46245,29914
46314,29984
46389,29984
46443,29973
46493,29952
46539,29922
46578,29883
46602,29847
46783,30029
46806,30047
46828,30066
46829,30066
46831,30068
46856,30081
46882,30095
46883,30096
46885,30097
46913,30105
46940,30114
46942,30114
46944,30115
46972,30117
47001,30121
47005,30121
47005,30121
47005,30121
47006,30121
47049,30121
47056,30135
47086,30170
47087,30172
47076,30180
47037,30219
47006,30264
46985,30315
46975,30369
46975,30502
47044,30572
47478,30572
47478,30564
47521,30564
47521,30572
47529,30572
47529,30614
47521,30614
47521,30999
47590,31069
47773,31069
47827,31058
47878,31037
47923,31007
47962,30968
47993,30922
48014,30871
48024,30818
48024,30802
48046,30843
48076,30879
48112,30909
48153,30931
48185,30940
48185,31322
48060,31322
48013,31327
47969,31340
47928,31362
47892,31392
47862,31428
47840,31469
47827,31513
47822,31560
47822,32440
47827,32486
47840,32530
47862,32571
47892,32607
47928,32637
47969,32659
48013,32672
48060,32677
48940,32677
48986,32672
49030,32659
49071,32637
49107,32607
49137,32571
49159,32530
49172,32486
49177,32440
49177,31560
49172,31513
49159,31469
49137,31428
49107,31392
49071,31362
49030,31340
48986,31327
48940,31322
48814,31322
48814,30940
48846,30931
48887,30909
48912,30888
49038,30888
49056,30922
49086,30958
49122,30987
49163,31009
49207,31023
49253,31027
49746,31027
49792,31023
49836,31009
49877,30987
49913,30958
49943,30922
49965,30881
49978,30836
49983,30790
49983,30396
49978,30350
49965,30306
49943,30264
49913,30229
49912,30227
49923,30219
49962,30180
49993,30135
50014,30084
50024,30030
50024,29897
49955,29827
49521,29827
49521,29835
49478,29835
49478,29827
49470,29827
49470,29785
49478,29785
49478,29777
49521,29777
49521,29785
49955,29785
50024,29715
50024,29581
50014,29528
49993,29477
49962,29431
49923,29392
49878,29362
49827,29341
49773,29330
49613,29330
49624,29317
49642,29294
49643,29293
49644,29292
49658,29266
49672,29241
49673,29239
49673,29237
49678,29222
49682,29221
49723,29199
49759,29169
49789,29133
49811,29092
49824,29048
49829,29001
49829,28774
49838,28759
49859,28709
49870,28655
49870,28590
49800,28521
49664,28521
49638,28513
49591,28508
49353,28508
49353,28491
49591,28491
49638,28486
49664,28478
49800,28478
49870,28409
49870,28344
49859,28290
49838,28240
49829,28225
49829,27998
49824,27951
49814,27920
49814,27560
49846,27551
49887,27529
49923,27499
49953,27463
49975,27422
49988,27378
49993,27331
49993,27271
51087,27271
51087,27503
51157,27573
51738,27573
51738,27090
51668,27020
51338,27020
51284,27031
51234,27052
51188,27082
51149,27121
51119,27167
51098,27217
51087,27271
49993,27271
49993,27056
49988,27009
49975,26965
49953,26924
49923,26888
49887,26858
49858,26843
49887,26830
49933,26800
49972,26761
50002,26715
50023,26665
50034,26611
50034,26536
49964,26467
49521,26467
49521,26475
49478,26475
49478,26467
49470,26467
49470,26424
49478,26424
49478,26099
49521,26099
49521,26424
49964,26424
50034,26355
50034,26280
50023,26226
50002,26176
49972,26130
49933,26091
49887,26061
49837,26040
49783,26029
49590,26029
49521,26099
49478,26099
49409,26029
49216,26029
49162,26040
49112,26061
49066,26091
49027,26130
48997,26176
48980,26215
48975,26197
48953,26156
48923,26120
48887,26090
48874,26083
48874,25704
48952,25654
49069,25542
49163,25410
49179,25374
49258,25374
49261,25379
49348,25516
49461,25632
49594,25725
49743,25790
49901,25824
50063,25828
50223,25800
50374,25741
50511,25654
50628,25542
50689,25456
50689,25618
50700,25671
50721,25722
50751,25768
50790,25807
50836,25837
50887,25858
50941,25869
51468,25869
51537,25799
51537,25021
51529,25021
51529,24978
51537,24978
51537,24970
51580,24970
51580,24978
51588,24978
51588,25021
51580,25021
51580,25799
51650,25869
52177,25869
52230,25858
52232,25858
52232,26097
52212,26122
52190,26163
52176,26207
52172,26253
52172,26746
52176,26792
52190,26836
52212,26877
52232,26902
52232,27030
52180,27020
51850,27020
51781,27090
51781,27573
51788,27573
51788,27615
51781,27615
51781,27623
51738,27623
51738,27615
51157,27615
51087,27685
51087,27917
51098,27971
51119,28021
51149,28067
51163,28081
51146,28113
51133,28158
51128,28204
51128,28795
51133,28841
51146,28886
51168,28927
51189,28952
51168,28978
51146,29019
51133,29063
51128,29110
51128,29700
51133,29747
51146,29791
51168,29832
51198,29868
51234,29898
51275,29920
51319,29933
51366,29938
52153,29938
52173,29936
52173,30242
52172,30253
52172,30321
51993,30500
51968,30530
51942,30561
51941,30563
51940,30565
51921,30600
51901,30635
51901,30637
51900,30639
51888,30678
51876,30716
51876,30718
51875,30720
51871,30760
51866,30800
51866,30804
51866,30804
51866,30804
51866,30806
51866,31365
51853,31367
51809,31380
51768,31402
51732,31432
51702,31468
51680,31509
51667,31553
51662,31600
51662,32400
51667,32446
51680,32490
51702,32531
51732,32567
51768,32597
51809,32619
51853,32632
51900,32637
52700,32637
52746,32632
52790,32619
52831,32597
52867,32567
52891,32538
52918,32561
53035,32624
53162,32664
53172,32666
53278,32608
53278,32021
53321,32021
53321,32608
53427,32666
53437,32664
53564,32624
53681,32561
53783,32476
53867,32372
53929,32254
53966,32127
53908,32021
53321,32021
53278,32021
53270,32021
53270,31978
53278,31978
53278,31391
53321,31391
53321,31978
53908,31978
53966,31872
53929,31745
53867,31627
53783,31523
53681,31438
53564,31375
53437,31335
53427,31333
53321,31391
53278,31391
53172,31333
53162,31335
53035,31375
52918,31438
52891,31461
52867,31432
52831,31402
52790,31380
52746,31367
52733,31365
52733,30985
52735,30983
52803,30983
52849,30978
52893,30965
52935,30943
52970,30913
52972,30912
52980,30923
53019,30962
53064,30993
53115,31014
53169,31024
53302,31024
53372,30955
53372,30521
53414,30521
53414,30955
53484,31024
53618,31024
53671,31014
53722,30993
53768,30962
53807,30923
53837,30878
53858,30827
53869,30773
53869,30590
53799,30521
53414,30521
53372,30521
53364,30521
53364,30478
53372,30478
53372,30044
53414,30044
53414,30478
53799,30478
53869,30409
53869,30226
53858,30172
53837,30121
53807,30076
53768,30037
53722,30006
53671,29985
53618,29975
53484,29975
53414,30044
53372,30044
53302,29975
53169,29975
53115,29985
53064,30006
53039,30023
53039,29706
53035,29666
53031,29626
53031,29624
53031,29622
53019,29583
53008,29545
53007,29543
53006,29541
52987,29505
52969,29470
52968,29468
52967,29466
52941,29435
52916,29404
52913,29401
52913,29401
52913,29401
52912,29400
52611,29099
52580,29073
52550,29048
52548,29047
52546,29045
52511,29026
52476,29007
52473,29006
52471,29005
52433,28994
52395,28981
52393,28981
52391,28980
52351,28976
52349,28976
52329,28952
52350,28927
52372,28886
52384,28848
52388,28847
52390,28846
52392,28845
52423,28829
52453,28813
52455,28812
52456,28811
52483,28789
52510,28768
52513,28765
52513,28765
52513,28765
52514,28764
52687,28590
53567,28590
53567,29275
53578,29329
53599,29380
53629,29425
53668,29464
53714,29495
53765,29516
53819,29526
54149,29526
54218,29457
54218,28521
53637,28521
53567,28590
52687,28590
52870,28408
52892,28381
52914,28355
52915,28353
52917,28351
52933,28321
52950,28291
52950,28289
52951,28287
52961,28254
52972,28221
52972,28219
52972,28217
52976,28183
52980,28148
52980,28145
52980,28145
52980,28144
52980,28143
52980,27724
53567,27724
53567,28409
53637,28478
54218,28478
54218,27542
54149,27473
53819,27473
53765,27483
53714,27504
53668,27535
53629,27574
53599,27619
53578,27670
53567,27724
52980,27724
52980,26923
52980,26923
53019,26962
53064,26993
53115,27014
53169,27024
53302,27024
53372,26955
53372,26521
53414,26521
53414,26955
53484,27024
53618,27024
53671,27014
53722,26993
53768,26962
53807,26923
53837,26878
53858,26827
53869,26773
53869,26590
53799,26521
53414,26521
53372,26521
53364,26521
53364,26478
53372,26478
53372,26044
53414,26044
53414,26478
53799,26478
53869,26409
53869,26226
53858,26172
53837,26121
53807,26076
53768,26037
53722,26006
53671,25985
53618,25975
53484,25975
53414,26044
53372,26044
53302,25975
53169,25975
53115,25985
53064,26006
53019,26037
52980,26076
52980,26076
52980,24769
53072,24769
53101,24928
53161,25079
53248,25216
53361,25332
53494,25425
53643,25490
53801,25524
53963,25528
54123,25500
54274,25441
54411,25354
54528,25242
54622,25110
54688,24962
54724,24804
54726,24618
54695,24459
54633,24309
54543,24174
54429,24059
54295,23969
54145,23906
53986,23873
53824,23872
53665,23903
53515,23963
53379,24052
53263,24165
53171,24299
53108,24448
53074,24607
53072,24769
52980,24769
52980,24156
52976,24121
52973,24087
52973,24085
52973,24083
52963,24050
52953,24017
52952,24015
52952,24013
52935,23983
52919,23952
52918,23951
52917,23949
52895,23922
52874,23895
52871,23892
52871,23892
52871,23892
52870,23891
52744,23765
54734,23765
54734,27491
54715,27483
54661,27473
54331,27473
54261,27542
54261,28478
54269,28478
54269,28521
54261,28521
54261,29457
54331,29526
54661,29526
54715,29516
54734,29508
54734,32984
45015,32984
45015,32069
45072,32069
45101,32228
45161,32379
45248,32516
45361,32632
45494,32725
45643,32790
45801,32824
45963,32828
46123,32800
46274,32741
46411,32654
46528,32542
46622,32410
46688,32262
46724,32104
46726,31918
46695,31759
46633,31609
46543,31474
46429,31359
46295,31269
46145,31206
45986,31173
45824,31172
45665,31203
45515,31263
45379,31352
45263,31465
45171,31599
45108,31748
45074,31907
45072,32069
45015,32069
45015,30684
46975,30684
46975,30818
46985,30871
47006,30922
47037,30968
47076,31007
47121,31037
47172,31058
47226,31069
47409,31069
47478,30999
47478,30614
47044,30614
46975,30684
45015,30684
45015,24869
45072,24869
45101,25028
45161,25179
45248,25316
45361,25432
45494,25525
45643,25590
45801,25624
45963,25628
46123,25600
46274,25541
46411,25454
46528,25342
46622,25210
46688,25062
46724,24904
46726,24718
46695,24559
46633,24409
46543,24274
46429,24159
46295,24069
46145,24006
45986,23973
45824,23972
45665,24003
45515,24063
45379,24152
45263,24265
45171,24399
45108,24548
45074,24707
45072,24869
45015,24869
45015,23765
47305,23765
46935,24135
" /> 
<polyline style="fill-rule:evenodd;"
points="48006,29826
48006,29963
48011,30010
48024,30054
48046,30095
48076,30131
48112,30161
48153,30183
48197,30196
48232,30200
48197,30203
48153,30216
48112,30238
48076,30268
48046,30304
48024,30345
48021,30354
48014,30315
47993,30264
47962,30219
47923,30180
47912,30172
47913,30170
47943,30135
47965,30093
47978,30049
47983,30003
47983,29802
48006,29826
" /> 
</g>
<g style="fill:#FFFFFF; fill-opacity:1.0; 
stroke:#FFFFFF; stroke-width:157.48; stroke-opacity:1; 
stroke-linecap:round; stroke-linejoin:round;">
</g>
<g style="fill:#FFFFFF; fill-opacity:1.0; 
stroke:#FFFFFF; stroke-width:0; stroke-opacity:1; 
stroke-linecap:round; stroke-linejoin:round;">
<circle cx="45900" cy="24800" r="393.701" /> 
</g>
<g style="fill:#FFFFFF; fill-opacity:1.0; 
stroke:#FFFFFF; stroke-width:39.3701; stroke-opacity:1; 
stroke-linecap:round; stroke-linejoin:round;">
</g>
<g style="fill:#FFFFFF; fill-opacity:1.0; 
stroke:#FFFFFF; stroke-width:0; stroke-opacity:1; 
stroke-linecap:round; stroke-linejoin:round;">
<circle cx="45900" cy="32000" r="393.701" /> 
</g>
<g style="fill:#FFFFFF; fill-opacity:1.0; 
stroke:#FFFFFF; stroke-width:39.3701; stroke-opacity:1; 
stroke-linecap:round; stroke-linejoin:round;">
</g>
<g style="fill:#FFFFFF; fill-opacity:1.0; 
stroke:#FFFFFF; stroke-width:0; stroke-opacity:1; 
stroke-linecap:round; stroke-linejoin:round;">
<circle cx="53900" cy="24700" r="393.701" /> 
</g>
<g style="fill:#FFFFFF; fill-opacity:1.0; 
stroke:#FFFFFF; stroke-width:39.3701; stroke-opacity:1; 
stroke-linecap:round; stroke-linejoin:round;">
</g>
<g style="fill:#FFFFFF; fill-opacity:1.0; 
stroke:#FFFFFF; stroke-width:0; stroke-opacity:1; 
stroke-linecap:round; stroke-linejoin:round;">
<circle cx="53300" cy="32000" r="200" /> 
</g>
<g style="fill:#FFFFFF; fill-opacity:1.0; 
stroke:#FFFFFF; stroke-width:39.3701; stroke-opacity:1; 
stroke-linecap:round; stroke-linejoin:round;">
</g>
<g style="fill:#FFFFFF; fill-opacity:1.0; 
stroke:#FFFFFF; stroke-width:0; stroke-opacity:1; 
stroke-linecap:round; stroke-linejoin:round;">
<circle cx="52300" cy="32000" r="200" /> 
</g>
<g style="fill:#FFFFFF; fill-opacity:1.0; 
stroke:#FFFFFF; stroke-width:39.3701; stroke-opacity:1; 
stroke-linecap:round; stroke-linejoin:round;">
</g>
<g style="fill:#FFFFFF; fill-opacity:1.0; 
stroke:#FFFFFF; stroke-width:0; stroke-opacity:1; 
stroke-linecap:round; stroke-linejoin:round;">
<circle cx="48500" cy="32000" r="200" /> 
</g>
<g style="fill:#FFFFFF; fill-opacity:1.0; 
stroke:#FFFFFF; stroke-width:39.3701; stroke-opacity:1; 
stroke-linecap:round; stroke-linejoin:round;">
</g>
<g style="fill:#FFFFFF; fill-opacity:1.0; 
stroke:#FFFFFF; stroke-width:0; stroke-opacity:1; 
stroke-linecap:round; stroke-linejoin:round;">
<circle cx="48440.9" cy="25000" r="354.331" /> 
</g>
<g style="fill:#FFFFFF; fill-opacity:1.0; 
stroke:#FFFFFF; stroke-width:39.3701; stroke-opacity:1; 
stroke-linecap:round; stroke-linejoin:round;">
</g>
<g style="fill:#FFFFFF; fill-opacity:1.0; 
stroke:#FFFFFF; stroke-width:0; stroke-opacity:1; 
stroke-linecap:round; stroke-linejoin:round;">
<circle cx="50000" cy="25000" r="354.331" /> 
</g>
<g style="fill:#FFFFFF; fill-opacity:1.0; 
stroke:#FFFFFF; stroke-width:39.3701; stroke-opacity:1; 
stroke-linecap:round; stroke-linejoin:round;">
</g>
<g style="fill:#FFFFFF; fill-opacity:1.0; 
stroke:#FFFFFF; stroke-width:0; stroke-opacity:1; 
stroke-linecap:round; stroke-linejoin:round;">
<circle cx="51559.1" cy="25000" r="354.331" /> 
</g>
<g style="fill:#FFFFFF; fill-opacity:1.0; 
stroke:#FFFFFF; stroke-width:39.3701; stroke-opacity:1; 
stroke-linecap:round; stroke-linejoin:round;">
</g>
<g style="fill:#000000; fill-opacity:1.0; 
stroke:#000000; stroke-width:39.3701; stroke-opacity:1; 
stroke-linecap:round; stroke-linejoin:round;">
</g>
<g style="fill:#840000; fill-opacity:1.0; 
stroke:#840000; stroke-width:39.3701; stroke-opacity:1; 
stroke-linecap:round; stroke-linejoin:round;">
</g>
<g style="fill:#840000; fill-opacity:1.0; 
stroke:#840000; stroke-width:0; stroke-opacity:1; 
stroke-linecap:round; stroke-linejoin:round;">
<circle cx="45900" cy="24800" r="669.291" /> 
</g>
<g style="fill:#840000; fill-opacity:1.0; 
stroke:#840000; stroke-width:39.3701; stroke-opacity:1; 
stroke-linecap:round; stroke-linejoin:round;">
</g>
<g style="fill:#840000; fill-opacity:1.0; 
stroke:#840000; stroke-width:0; stroke-opacity:1; 
stroke-linecap:round; stroke-linejoin:round;">
<circle cx="45900" cy="32000" r="669.291" /> 
</g>
<g style="fill:#840000; fill-opacity:1.0; 
stroke:#840000; stroke-width:39.3701; stroke-opacity:1; 
stroke-linecap:round; stroke-linejoin:round;">
</g>
<g style="fill:#840000; fill-opacity:1.0; 
stroke:#840000; stroke-width:0; stroke-opacity:1; 
stroke-linecap:round; stroke-linejoin:round;">
<circle cx="53900" cy="24700" r="669.291" /> 
</g>
<g style="fill:#840000; fill-opacity:1.0; 
stroke:#840000; stroke-width:39.3701; stroke-opacity:1; 
stroke-linecap:round; stroke-linejoin:round;">
</g>
<g style="fill:#840000; fill-opacity:1.0; 
stroke:#840000; stroke-width:957.48; stroke-opacity:1; 
stroke-linecap:round; stroke-linejoin:round;">
</g>
<g style="fill:#840000; fill-opacity:0.0; 
stroke:#840000; stroke-width:957.48; stroke-opacity:1; 
stroke-linecap:round; stroke-linejoin:round;">
<path d="M53300 32000
L53300 32000
" />
</g>
<g style="fill:#840000; fill-opacity:0.0; 
stroke:#840000; stroke-width:0; stroke-opacity:1; 
stroke-linecap:round; stroke-linejoin:round;">
</g>
<g style="fill:#840000; fill-opacity:1.0; 
stroke:#840000; stroke-width:0; stroke-opacity:1; 
stroke-linecap:round; stroke-linejoin:round;">
<polyline style="fill-rule:evenodd;"
points="52778,32478
51821,32478
51821,31521
52778,31521
52778,32478
" /> 
<polyline style="fill-rule:evenodd;"
points="47981,31481
49018,31481
49018,32518
47981,32518
47981,31481
" /> 
<circle cx="48440.9" cy="25000" r="669.291" /> 
</g>
<g style="fill:#840000; fill-opacity:1.0; 
stroke:#840000; stroke-width:39.3701; stroke-opacity:1; 
stroke-linecap:round; stroke-linejoin:round;">
</g>
<g style="fill:#840000; fill-opacity:1.0; 
stroke:#840000; stroke-width:0; stroke-opacity:1; 
stroke-linecap:round; stroke-linejoin:round;">
<circle cx="50000" cy="25000" r="669.291" /> 
</g>
<g style="fill:#840000; fill-opacity:1.0; 
stroke:#840000; stroke-width:39.3701; stroke-opacity:1; 
stroke-linecap:round; stroke-linejoin:round;">
</g>
<g style="fill:#840000; fill-opacity:1.0; 
stroke:#840000; stroke-width:0; stroke-opacity:1; 
stroke-linecap:round; stroke-linejoin:round;">
<polyline style="fill-rule:evenodd;"
points="52228,24330
52228,25669
50889,25669
50889,24330
52228,24330
" /> 
<polyline style="fill-rule:evenodd;"
points="51287,27968
51287,27220
52232,27220
52232,27968
51287,27968
" /> 
<polyline style="fill-rule:evenodd;"
points="51287,29779
51287,29031
52232,29031
52232,29779
51287,29779
" /> 
<polyline style="fill-rule:evenodd;"
points="51287,28874
51287,28125
52232,28125
52232,28874
51287,28874
" /> 
<polyline style="fill-rule:evenodd;"
points="53767,29326
53767,27673
54712,27673
54712,29326
53767,29326
" /> 
<polyline style="fill-rule:evenodd;"
points="48804,28667
48804,29080
48229,29080
48229,28667
48804,28667
" /> 
<polyline style="fill-rule:evenodd;"
points="48804,27919
48804,28332
48229,28332
48229,27919
48804,27919
" /> 
<polyline style="fill-rule:evenodd;"
points="49670,27919
49670,28332
49095,28332
49095,27919
49670,27919
" /> 
<polyline style="fill-rule:evenodd;"
points="49670,28293
49670,28706
49095,28706
49095,28293
49670,28293
" /> 
<polyline style="fill-rule:evenodd;"
points="49670,28667
49670,29080
49095,29080
49095,28667
49670,28667
" /> 
<polyline style="fill-rule:evenodd;"
points="53118,30824
53118,30175
53669,30175
53669,30824
53118,30824
" /> 
<polyline style="fill-rule:evenodd;"
points="52330,30824
52330,30175
52881,30175
52881,30824
52330,30824
" /> 
<polyline style="fill-rule:evenodd;"
points="52330,26824
52330,26175
52881,26175
52881,26824
52330,26824
" /> 
<polyline style="fill-rule:evenodd;"
points="53118,26824
53118,26175
53669,26175
53669,26824
53118,26824
" /> 
<polyline style="fill-rule:evenodd;"
points="47175,29530
47824,29530
47824,30081
47175,30081
47175,29530
" /> 
<polyline style="fill-rule:evenodd;"
points="47175,30318
47824,30318
47824,30869
47175,30869
47175,30318
" /> 
<polyline style="fill-rule:evenodd;"
points="49824,30081
49175,30081
49175,29530
49824,29530
49824,30081
" /> 
<polyline style="fill-rule:evenodd;"
points="49824,30869
49175,30869
49175,30318
49824,30318
49824,30869
" /> 
<polyline style="fill-rule:evenodd;"
points="45692,28165
45692,28834
45259,28834
45259,28165
45692,28165
" /> 
<polyline style="fill-rule:evenodd;"
points="46440,28165
46440,28834
46007,28834
46007,28165
46440,28165
" /> 
<polyline style="fill-rule:evenodd;"
points="46007,29784
46007,29115
46440,29115
46440,29784
46007,29784
" /> 
<polyline style="fill-rule:evenodd;"
points="45259,29784
45259,29115
45692,29115
45692,29784
45259,29784
" /> 
<polyline style="fill-rule:evenodd;"
points="46440,27265
46440,27934
46007,27934
46007,27265
46440,27265
" /> 
<polyline style="fill-rule:evenodd;"
points="45692,27265
45692,27934
45259,27934
45259,27265
45692,27265
" /> 
<polyline style="fill-rule:evenodd;"
points="47834,27390
47165,27390
47165,26957
47834,26957
47834,27390
" /> 
<polyline style="fill-rule:evenodd;"
points="47834,26642
47165,26642
47165,26209
47834,26209
47834,26642
" /> 
<polyline style="fill-rule:evenodd;"
points="47165,28657
47834,28657
47834,29090
47165,29090
47165,28657
" /> 
<polyline style="fill-rule:evenodd;"
points="47165,27909
47834,27909
47834,28342
47165,28342
47165,27909
" /> 
<polyline style="fill-rule:evenodd;"
points="48834,27390
48165,27390
48165,26957
48834,26957
48834,27390
" /> 
<polyline style="fill-rule:evenodd;"
points="48834,26642
48165,26642
48165,26209
48834,26209
48834,26642
" /> 
<polyline style="fill-rule:evenodd;"
points="49165,26229
49834,26229
49834,26662
49165,26662
49165,26229
" /> 
<polyline style="fill-rule:evenodd;"
points="49165,26977
49834,26977
49834,27410
49165,27410
49165,26977
" /> 
<polyline style="fill-rule:evenodd;"
points="48834,30042
48165,30042
48165,29609
48834,29609
48834,30042
" /> 
<polyline style="fill-rule:evenodd;"
points="48834,30790
48165,30790
48165,30357
48834,30357
48834,30790
" /> 
</g>
<g style="fill:#000000; fill-opacity:1.0; 
stroke:#000000; stroke-width:0; stroke-opacity:1; 
stroke-linecap:round; stroke-linejoin:round;">
</g>
<g style="fill:#840000; fill-opacity:1.0; 
stroke:#840000; stroke-width:0; stroke-opacity:1; 
stroke-linecap:round; stroke-linejoin:round;">
<polyline style="fill-rule:evenodd;"
points="51366,27889
51366,27299
52153,27299
52153,27889
51366,27889
" /> 
<polyline style="fill-rule:evenodd;"
points="51366,29700
51366,29110
52153,29110
52153,29700
51366,29700
" /> 
<polyline style="fill-rule:evenodd;"
points="51366,28795
51366,28204
52153,28204
52153,28795
51366,28795
" /> 
<polyline style="fill-rule:evenodd;"
points="53846,29248
53846,27751
54633,27751
54633,29248
53846,29248
" /> 
<polyline style="fill-rule:evenodd;"
points="48725,28746
48725,29001
48308,29001
48308,28746
48725,28746
" /> 
<polyline style="fill-rule:evenodd;"
points="48725,27998
48725,28253
48308,28253
48308,27998
48725,27998
" /> 
<polyline style="fill-rule:evenodd;"
points="49591,27998
49591,28253
49174,28253
49174,27998
49591,27998
" /> 
<polyline style="fill-rule:evenodd;"
points="49591,28372
49591,28627
49174,28627
49174,28372
49591,28372
" /> 
<polyline style="fill-rule:evenodd;"
points="49591,28746
49591,29001
49174,29001
49174,28746
49591,28746
" /> 
<polyline style="fill-rule:evenodd;"
points="53196,30746
53196,30253
53590,30253
53590,30746
53196,30746
" /> 
<polyline style="fill-rule:evenodd;"
points="52409,30746
52409,30253
52803,30253
52803,30746
52409,30746
" /> 
<polyline style="fill-rule:evenodd;"
points="52409,26746
52409,26253
52803,26253
52803,26746
52409,26746
" /> 
<polyline style="fill-rule:evenodd;"
points="53196,26746
53196,26253
53590,26253
53590,26746
53196,26746
" /> 
<polyline style="fill-rule:evenodd;"
points="47253,29609
47746,29609
47746,30003
47253,30003
47253,29609
" /> 
<polyline style="fill-rule:evenodd;"
points="47253,30396
47746,30396
47746,30790
47253,30790
47253,30396
" /> 
<polyline style="fill-rule:evenodd;"
points="49746,30003
49253,30003
49253,29609
49746,29609
49746,30003
" /> 
<polyline style="fill-rule:evenodd;"
points="49746,30790
49253,30790
49253,30396
49746,30396
49746,30790
" /> 
<polyline style="fill-rule:evenodd;"
points="45613,28244
45613,28755
45338,28755
45338,28244
45613,28244
" /> 
<polyline style="fill-rule:evenodd;"
points="46361,28244
46361,28755
46086,28755
46086,28244
46361,28244
" /> 
<polyline style="fill-rule:evenodd;"
points="46086,29705
46086,29194
46361,29194
46361,29705
46086,29705
" /> 
<polyline style="fill-rule:evenodd;"
points="45338,29705
45338,29194
45613,29194
45613,29705
45338,29705
" /> 
<polyline style="fill-rule:evenodd;"
points="46361,27344
46361,27855
46086,27855
46086,27344
46361,27344
" /> 
<polyline style="fill-rule:evenodd;"
points="45613,27344
45613,27855
45338,27855
45338,27344
45613,27344
" /> 
<polyline style="fill-rule:evenodd;"
points="47755,27311
47244,27311
47244,27036
47755,27036
47755,27311
" /> 
<polyline style="fill-rule:evenodd;"
points="47755,26563
47244,26563
47244,26288
47755,26288
47755,26563
" /> 
<polyline style="fill-rule:evenodd;"
points="47244,28736
47755,28736
47755,29011
47244,29011
47244,28736
" /> 
<polyline style="fill-rule:evenodd;"
points="47244,27988
47755,27988
47755,28263
47244,28263
47244,27988
" /> 
<polyline style="fill-rule:evenodd;"
points="48755,27311
48244,27311
48244,27036
48755,27036
48755,27311
" /> 
<polyline style="fill-rule:evenodd;"
points="48755,26563
48244,26563
48244,26288
48755,26288
48755,26563
" /> 
<polyline style="fill-rule:evenodd;"
points="49244,26308
49755,26308
49755,26583
49244,26583
49244,26308
" /> 
<polyline style="fill-rule:evenodd;"
points="49244,27056
49755,27056
49755,27331
49244,27331
49244,27056
" /> 
<polyline style="fill-rule:evenodd;"
points="48755,29963
48244,29963
48244,29688
48755,29688
48755,29963
" /> 
<polyline style="fill-rule:evenodd;"
points="48755,30711
48244,30711
48244,30436
48755,30436
48755,30711
" /> 
</g>
<g style="fill:#000000; fill-opacity:1.0; 
stroke:#000000; stroke-width:0; stroke-opacity:1; 
stroke-linecap:round; stroke-linejoin:round;">
</g>
<g style="fill:#008484; fill-opacity:1.0; 
stroke:#008484; stroke-width:0; stroke-opacity:1; 
stroke-linecap:round; stroke-linejoin:round;">
</g>
<g style="fill:#008484; fill-opacity:0.0; 
stroke:#008484; stroke-width:0; stroke-opacity:1; 
stroke-linecap:round; stroke-linejoin:round;">
</g>
<g style="fill:#008484; fill-opacity:0.0; 
stroke:#008484; stroke-width:98.4252; stroke-opacity:1; 
stroke-linecap:round; stroke-linejoin:round;">
<path d="M48028 23871
L48084 23890
L48103 23909
L48121 23946
L48121 24003
L48103 24040
L48084 24059
L48046 24078
L47896 24078
L47896 23684
L48028 23684
L48065 23703
L48084 23721
L48103 23759
L48103 23796
L48084 23834
L48065 23853
L48028 23871
L47896 23871
" />
<path d="M48346 24078
L48309 24059
L48290 24021
L48290 23684
" />
<path d="M48665 23815
L48665 24078
" />
<path d="M48496 23815
L48496 24021
L48515 24059
L48553 24078
L48609 24078
L48646 24059
L48665 24040
" />
<path d="M49003 24059
L48965 24078
L48890 24078
L48853 24059
L48834 24021
L48834 23871
L48853 23834
L48890 23815
L48965 23815
L49003 23834
L49021 23871
L49021 23909
L48834 23946
" />
<path d="M49578 23871
L49634 23890
L49653 23909
L49671 23946
L49671 24003
L49653 24040
L49634 24059
L49596 24078
L49446 24078
L49446 23684
L49578 23684
L49615 23703
L49634 23721
L49653 23759
L49653 23796
L49634 23834
L49615 23853
L49578 23871
L49446 23871
" />
<path d="M49896 24078
L49859 24059
L49840 24021
L49840 23684
" />
<path d="M50215 23815
L50215 24078
" />
<path d="M50046 23815
L50046 24021
L50065 24059
L50103 24078
L50159 24078
L50196 24059
L50215 24040
" />
<path d="M50553 24059
L50515 24078
L50440 24078
L50403 24059
L50384 24021
L50384 23871
L50403 23834
L50440 23815
L50515 23815
L50553 23834
L50571 23871
L50571 23909
L50384 23946
" />
<path d="M51275 24078
L51143 23890
" />
<path d="M51050 24078
L51050 23684
L51200 23684
L51237 23703
L51256 23721
L51275 23759
L51275 23815
L51256 23853
L51237 23871
L51200 23890
L51050 23890
" />
<path d="M51593 24059
L51556 24078
L51481 24078
L51443 24059
L51425 24021
L51425 23871
L51443 23834
L51481 23815
L51556 23815
L51593 23834
L51612 23871
L51612 23909
L51425 23946
" />
<path d="M51949 24078
L51949 23684
" />
<path d="M51949 24059
L51912 24078
L51837 24078
L51799 24059
L51781 24040
L51762 24003
L51762 23890
L51781 23853
L51799 23834
L51837 23815
L51912 23815
L51949 23834
" />
<path d="M51575 32684
L51706 33078
L51837 32684
" />
<path d="M52193 33040
L52174 33059
L52118 33078
L52081 33078
L52025 33059
L51987 33021
L51968 32984
L51950 32909
L51950 32853
L51968 32778
L51987 32740
L52025 32703
L52081 32684
L52118 32684
L52174 32703
L52193 32721
" />
<path d="M52587 33040
L52568 33059
L52512 33078
L52474 33078
L52418 33059
L52381 33021
L52362 32984
L52343 32909
L52343 32853
L52362 32778
L52381 32740
L52418 32703
L52474 32684
L52512 32684
L52568 32703
L52587 32721
" />
<path d="M48012 32965
L48200 32965
" />
<path d="M47975 33078
L48106 32684
L48237 33078
" />
<path d="M48368 33078
L48368 32684
L48462 32684
L48518 32703
L48556 32740
L48574 32778
L48593 32853
L48593 32909
L48574 32984
L48556 33021
L48518 33059
L48462 33078
L48368 33078
" />
<path d="M48987 33040
L48968 33059
L48912 33078
L48874 33078
L48818 33059
L48781 33021
L48762 32984
L48743 32909
L48743 32853
L48762 32778
L48781 32740
L48818 32703
L48874 32684
L48912 32684
L48968 32703
L48987 32721
" />
<path d="M53200 32703
L53162 32684
L53106 32684
L53050 32703
L53012 32740
L52993 32778
L52975 32853
L52975 32909
L52993 32984
L53012 33021
L53050 33059
L53106 33078
L53143 33078
L53200 33059
L53218 33040
L53218 32909
L53143 32909
" />
<path d="M53387 33078
L53387 32684
L53612 33078
L53612 32684
" />
<path d="M53799 33078
L53799 32684
L53893 32684
L53949 32703
L53987 32740
L54006 32778
L54024 32853
L54024 32909
L54006 32984
L53987 33021
L53949 33059
L53893 33078
L53799 33078
" />
</g>
<g style="fill:#008484; fill-opacity:0.0; 
stroke:#008484; stroke-width:47.2441; stroke-opacity:1; 
stroke-linecap:round; stroke-linejoin:round;">
<path d="M51385 27157
L53751 27157
" />
<path d="M52271 29842
L53751 29842
" />
<path d="M53751 27157
L53751 27653
" />
<path d="M53751 29842
L53751 29346
" />
<path d="M48595 29133
L49560 29133
" />
<path d="M49304 27866
L48595 27866
" />
</g>
<g style="fill:#008484; fill-opacity:0.0; 
stroke:#008484; stroke-width:59.0551; stroke-opacity:1; 
stroke-linecap:round; stroke-linejoin:round;">
<path d="M52803 30834
L53196 30834
" />
<path d="M53196 30165
L52803 30165
" />
<path d="M53196 26165
L52803 26165
" />
<path d="M52803 26834
L53196 26834
" />
<path d="M47834 30396
L47834 30003
" />
<path d="M47165 30003
L47165 30396
" />
<path d="M49834 30396
L49834 30003
" />
<path d="M49165 30003
L49165 30396
" />
<path d="M46086 28844
L45613 28844
" />
<path d="M45613 28155
L46086 28155
" />
<path d="M45613 29105
L46086 29105
" />
<path d="M46086 29794
L45613 29794
" />
<path d="M45613 27255
L46086 27255
" />
<path d="M46086 27944
L45613 27944
" />
<path d="M47844 26563
L47844 27036
" />
<path d="M47155 27036
L47155 26563
" />
<path d="M47844 28263
L47844 28736
" />
<path d="M47155 28736
L47155 28263
" />
<path d="M48844 26563
L48844 27036
" />
<path d="M48155 27036
L48155 26563
" />
<path d="M49155 27056
L49155 26583
" />
<path d="M49844 26583
L49844 27056
" />
<path d="M48155 30436
L48155 29963
" />
<path d="M48844 29963
L48844 30436
" />
</g>
<g style="fill:#C2C200; fill-opacity:0.0; 
stroke:#C2C200; stroke-width:59.0551; stroke-opacity:1; 
stroke-linecap:round; stroke-linejoin:round;">
<path d="M51460 29977
L51460 30232
L51475 30262
L51490 30277
L51520 30292
L51580 30292
L51610 30277
L51625 30262
L51640 30232
L51640 29977
" />
<path d="M51954 30292
L51774 30292
" />
<path d="M51864 30292
L51864 29977
L51834 30022
L51804 30052
L51774 30067
" />
<path d="M49860 28327
L49860 28582
L49875 28612
L49890 28627
L49920 28642
L49980 28642
L50010 28627
L50025 28612
L50040 28582
L50040 28327
" />
<path d="M50174 28357
L50189 28342
L50219 28327
L50294 28327
L50324 28342
L50339 28357
L50354 28387
L50354 28417
L50339 28462
L50159 28642
L50354 28642
" />
<path d="M53997 30612
L53982 30627
L53937 30642
L53907 30642
L53862 30627
L53832 30597
L53817 30567
L53802 30507
L53802 30462
L53817 30402
L53832 30372
L53862 30342
L53907 30327
L53937 30327
L53982 30342
L53997 30357
" />
<path d="M54297 30642
L54117 30642
" />
<path d="M54207 30642
L54207 30327
L54177 30372
L54147 30402
L54117 30417
" />
<path d="M54312 26552
L54327 26567
L54342 26612
L54342 26642
L54327 26687
L54297 26717
L54267 26732
L54207 26747
L54162 26747
L54102 26732
L54072 26717
L54042 26687
L54027 26642
L54027 26612
L54042 26567
L54057 26552
" />
<path d="M54057 26432
L54042 26417
L54027 26387
L54027 26312
L54042 26282
L54057 26267
L54087 26252
L54117 26252
L54162 26267
L54342 26447
L54342 26252
" />
<path d="M47447 31212
L47432 31227
L47387 31242
L47357 31242
L47312 31227
L47282 31197
L47267 31167
L47252 31107
L47252 31062
L47267 31002
L47282 30972
L47312 30942
L47357 30927
L47387 30927
L47432 30942
L47447 30957
" />
<path d="M47552 30927
L47747 30927
L47642 31047
L47687 31047
L47717 31062
L47732 31077
L47747 31107
L47747 31182
L47732 31212
L47717 31227
L47687 31242
L47597 31242
L47567 31227
L47552 31212
" />
<path d="M49447 31212
L49432 31227
L49387 31242
L49357 31242
L49312 31227
L49282 31197
L49267 31167
L49252 31107
L49252 31062
L49267 31002
L49282 30972
L49312 30942
L49357 30927
L49387 30927
L49432 30942
L49447 30957
" />
<path d="M49717 31032
L49717 31242
" />
<path d="M49642 30912
L49567 31137
L49762 31137
" />
<path d="M46747 28642
L46642 28492
" />
<path d="M46567 28642
L46567 28327
L46687 28327
L46717 28342
L46732 28357
L46747 28387
L46747 28432
L46732 28462
L46717 28477
L46687 28492
L46567 28492
" />
<path d="M47047 28642
L46867 28642
" />
<path d="M46957 28642
L46957 28327
L46927 28372
L46897 28402
L46867 28417
" />
<path d="M46747 29592
L46642 29442
" />
<path d="M46567 29592
L46567 29277
L46687 29277
L46717 29292
L46732 29307
L46747 29337
L46747 29382
L46732 29412
L46717 29427
L46687 29442
L46567 29442
" />
<path d="M46867 29307
L46882 29292
L46912 29277
L46987 29277
L47017 29292
L47032 29307
L47047 29337
L47047 29367
L47032 29412
L46852 29592
L47047 29592
" />
<path d="M46747 27742
L46642 27592
" />
<path d="M46567 27742
L46567 27427
L46687 27427
L46717 27442
L46732 27457
L46747 27487
L46747 27532
L46732 27562
L46717 27577
L46687 27592
L46567 27592
" />
<path d="M46852 27427
L47047 27427
L46942 27547
L46987 27547
L47017 27562
L47032 27577
L47047 27607
L47047 27682
L47032 27712
L47017 27727
L46987 27742
L46897 27742
L46867 27727
L46852 27712
" />
<path d="M47447 27792
L47342 27642
" />
<path d="M47267 27792
L47267 27477
L47387 27477
L47417 27492
L47432 27507
L47447 27537
L47447 27582
L47432 27612
L47417 27627
L47387 27642
L47267 27642
" />
<path d="M47717 27582
L47717 27792
" />
<path d="M47642 27462
L47567 27687
L47762 27687
" />
<path d="M47447 29492
L47342 29342
" />
<path d="M47267 29492
L47267 29177
L47387 29177
L47417 29192
L47432 29207
L47447 29237
L47447 29282
L47432 29312
L47417 29327
L47387 29342
L47267 29342
" />
<path d="M47732 29177
L47582 29177
L47567 29327
L47582 29312
L47612 29297
L47687 29297
L47717 29312
L47732 29327
L47747 29357
L47747 29432
L47732 29462
L47717 29477
L47687 29492
L47612 29492
L47582 29477
L47567 29462
" />
<path d="M48447 27792
L48342 27642
" />
<path d="M48267 27792
L48267 27477
L48387 27477
L48417 27492
L48432 27507
L48447 27537
L48447 27582
L48432 27612
L48417 27627
L48387 27642
L48267 27642
" />
<path d="M48717 27477
L48657 27477
L48627 27492
L48612 27507
L48582 27552
L48567 27612
L48567 27732
L48582 27762
L48597 27777
L48627 27792
L48687 27792
L48717 27777
L48732 27762
L48747 27732
L48747 27657
L48732 27627
L48717 27612
L48687 27597
L48627 27597
L48597 27612
L48582 27627
L48567 27657
" />
<path d="M49447 27792
L49342 27642
" />
<path d="M49267 27792
L49267 27477
L49387 27477
L49417 27492
L49432 27507
L49447 27537
L49447 27582
L49432 27612
L49417 27627
L49387 27642
L49267 27642
" />
<path d="M49552 27477
L49762 27477
L49627 27792
" />
<path d="M48447 31192
L48342 31042
" />
<path d="M48267 31192
L48267 30877
L48387 30877
L48417 30892
L48432 30907
L48447 30937
L48447 30982
L48432 31012
L48417 31027
L48387 31042
L48267 31042
" />
<path d="M48627 31012
L48597 30997
L48582 30982
L48567 30952
L48567 30937
L48582 30907
L48597 30892
L48627 30877
L48687 30877
L48717 30892
L48732 30907
L48747 30937
L48747 30952
L48732 30982
L48717 30997
L48687 31012
L48627 31012
L48597 31027
L48582 31042
L48567 31072
L48567 31132
L48582 31162
L48597 31177
L48627 31192
L48687 31192
L48717 31177
L48732 31162
L48747 31132
L48747 31072
L48732 31042
L48717 31027
L48687 31012
" />
</g>
<g style="fill:#000000; fill-opacity:0.0; 
stroke:#000000; stroke-width:59.0551; stroke-opacity:1; 
stroke-linecap:round; stroke-linejoin:round;">
</g>
<g style="fill:#C2C200; fill-opacity:0.0; 
stroke:#C2C200; stroke-width:59.0551; stroke-opacity:1; 
stroke-linecap:round; stroke-linejoin:round;">
<path d="M55000 33250
L55000 23500
" />
<path d="M44750 33250
L55000 33250
" />
<path d="M44750 23500
L44750 33250
" />
<path d="M55000 23500
L44750 23500
" />
</g> 
</svg>
